<svg xmlns="http://www.w3.org/2000/svg" xmlns:xlink="http://www.w3.org/1999/xlink" width="260.386" height="128.554" viewBox="0 0 260.386 128.554">
  <defs>
    <radialGradient id="radial-gradient" cx="0.5" cy="0.282" r="1.324" gradientTransform="translate(0.306) scale(0.387 1)" gradientUnits="objectBoundingBox">
      <stop offset="0" stop-color="#3b0000"/>
      <stop offset="0.18"/>
      <stop offset="1" stop-color="#006473"/>
    </radialGradient>
    <linearGradient id="linear-gradient" x1="0.148" y1="0.079" x2="0.843" y2="1.017" gradientUnits="objectBoundingBox">
      <stop offset="0" stop-color="#faac2d"/>
      <stop offset="1" stop-color="#8f5900"/>
    </linearGradient>
    <linearGradient id="linear-gradient-2" x1="0.499" y1="-0.017" x2="0.499" y2="1.155" gradientUnits="objectBoundingBox">
      <stop offset="0" stop-color="#664b91"/>
      <stop offset="1" stop-color="#be75ff"/>
    </linearGradient>
    <linearGradient id="linear-gradient-3" x1="0.501" y1="0.019" x2="0.501" y2="1.019" gradientUnits="objectBoundingBox">
      <stop offset="0" stop-color="#219394"/>
      <stop offset="1" stop-color="aqua"/>
    </linearGradient>
    <linearGradient id="linear-gradient-4" x1="0.502" y1="-0.06" x2="0.502" y2="1.138" gradientUnits="objectBoundingBox">
      <stop offset="0" stop-color="#bf6f00"/>
      <stop offset="1" stop-color="#ffffaf"/>
    </linearGradient>
    <linearGradient id="linear-gradient-5" x1="0.5" y1="0.218" x2="0.5" y2="2.239" gradientUnits="objectBoundingBox">
      <stop offset="0" stop-color="#ff0b00"/>
      <stop offset="1" stop-color="#f90"/>
    </linearGradient>
    <linearGradient id="linear-gradient-6" x1="0.504" y1="-0.336" x2="0.504" y2="3.034" xlink:href="#linear-gradient-5"/>
    <linearGradient id="linear-gradient-7" x1="0.497" y1="-0.041" x2="0.497" y2="0.974" xlink:href="#linear-gradient-5"/>
    <linearGradient id="linear-gradient-8" x1="0.5" y1="-0.617" x2="0.5" y2="5.861" gradientUnits="objectBoundingBox">
      <stop offset="0" stop-color="#007000"/>
      <stop offset="1" stop-color="#6aff78"/>
    </linearGradient>
    <linearGradient id="linear-gradient-9" x1="0.498" y1="-0.13" x2="0.498" y2="1.021" xlink:href="#linear-gradient-8"/>
    <linearGradient id="linear-gradient-10" x1="0.501" y1="-0.004" x2="0.501" y2="0.983" gradientUnits="objectBoundingBox">
      <stop offset="0" stop-color="#999"/>
      <stop offset="1" stop-color="#fff"/>
    </linearGradient>
    <linearGradient id="linear-gradient-11" x1="0.496" y1="0.296" x2="0.496" y2="1.051" gradientUnits="objectBoundingBox">
      <stop offset="0" stop-color="#ff7e00"/>
      <stop offset="1" stop-color="#ffc000"/>
    </linearGradient>
    <linearGradient id="linear-gradient-12" x1="0.498" y1="0.251" x2="0.498" y2="1.049" xlink:href="#linear-gradient-11"/>
    <linearGradient id="linear-gradient-13" x1="0.502" y1="0.218" x2="0.502" y2="1.064" xlink:href="#linear-gradient-11"/>
    <linearGradient id="linear-gradient-14" x1="0.504" y1="0.18" x2="0.504" y2="1.065" xlink:href="#linear-gradient-11"/>
    <linearGradient id="linear-gradient-15" x1="0.502" y1="0.115" x2="0.502" y2="1.024" xlink:href="#linear-gradient-11"/>
    <linearGradient id="linear-gradient-16" x1="0.5" y1="0.079" x2="0.5" y2="1.06" xlink:href="#linear-gradient-11"/>
    <linearGradient id="linear-gradient-17" x1="0.5" y1="0.063" x2="0.5" y2="1.05" xlink:href="#linear-gradient-11"/>
    <linearGradient id="linear-gradient-18" x1="0.499" y1="0.087" x2="0.499" y2="1.076" xlink:href="#linear-gradient-11"/>
    <linearGradient id="linear-gradient-19" x1="0.506" y1="0.094" x2="0.506" y2="1.067" xlink:href="#linear-gradient-11"/>
    <linearGradient id="linear-gradient-20" x1="0.499" y1="0.111" x2="0.499" y2="1.053" xlink:href="#linear-gradient-11"/>
    <linearGradient id="linear-gradient-21" x1="0.5" y1="0.178" x2="0.5" y2="1.021" xlink:href="#linear-gradient-11"/>
    <linearGradient id="linear-gradient-22" x1="0.501" y1="0.232" x2="0.501" y2="1.049" xlink:href="#linear-gradient-11"/>
    <linearGradient id="linear-gradient-23" x1="0.498" y1="0.315" x2="0.498" y2="1.046" xlink:href="#linear-gradient-11"/>
  </defs>
  <g id="logo_splinterlands_1_" data-name="logo_splinterlands (1)" transform="translate(0)">
    <path id="Path_3560" data-name="Path 3560" d="M228.419,75.3l-.064-.2-2.735-8.391-.107-.336-.144.432-2.09,6.445a4.4,4.4,0,0,0,3.732,2.074Z" transform="translate(-104.245 -30.983)" fill="#fff"/>
    <path id="Path_3561" data-name="Path 3561" d="M235.815,72.772,233.069,78l-.149.272h5.816l-2.905-5.534Z" transform="translate(-108.746 -33.957)" fill="#fff"/>
    <path id="Path_3562" data-name="Path 3562" d="M249.5,78l-2.746-5.23-.016-.032-2.911,5.534h5.822Z" transform="translate(-113.84 -33.957)" fill="#fff"/>
    <path id="Path_3563" data-name="Path 3563" d="M257.66,66.33l-.107.357-2.73,8.413-.064.2h1.391a4.4,4.4,0,0,0,3.732-2.074l-2.1-6.445Z" transform="translate(-118.943 -30.964)" fill="#fff"/>
    <path id="Path_3564" data-name="Path 3564" d="M235.815,44.982l.016.032,2.905-5.534H232.92l.144.277Z" transform="translate(-108.746 -18.429)" fill="#fff"/>
    <path id="Path_3565" data-name="Path 3565" d="M246.757,44.982l2.746-5.225.149-.277H243.83l2.911,5.534Z" transform="translate(-113.84 -18.429)" fill="#fff"/>
    <path id="Path_3566" data-name="Path 3566" d="M225.523,48.431l.107-.336,2.735-8.413.064-.2h-1.4a4.4,4.4,0,0,0-3.732,2.074L225.39,48Z" transform="translate(-104.255 -18.429)" fill="#fff"/>
    <path id="Path_3567" data-name="Path 3567" d="M257.568,48.1l.112.336.139-.426,2.1-6.451a4.4,4.4,0,0,0-3.732-2.074H254.79l.064.2Z" transform="translate(-118.957 -18.429)" fill="#fff"/>
    <path id="Path_3568" data-name="Path 3568" d="M228.419,75.3l-.064-.2-2.735-8.391-.107-.336-.144.432-2.09,6.445a4.4,4.4,0,0,0,3.732,2.074Z" transform="translate(-104.245 -30.983)" fill="#fff"/>
    <path id="Path_3569" data-name="Path 3569" d="M235.815,72.772,233.069,78l-.149.272h5.816l-2.905-5.534Z" transform="translate(-108.746 -33.957)" fill="#fff"/>
    <path id="Path_3570" data-name="Path 3570" d="M249.5,78l-2.746-5.23-.016-.032-2.911,5.534h5.822Z" transform="translate(-113.84 -33.957)" fill="#fff"/>
    <path id="Path_3571" data-name="Path 3571" d="M257.66,66.33l-.107.357-2.73,8.413-.064.2h1.391a4.4,4.4,0,0,0,3.732-2.074l-2.1-6.445Z" transform="translate(-118.943 -30.964)" fill="#fff"/>
    <path id="Path_3572" data-name="Path 3572" d="M235.815,44.982l.016.032,2.905-5.534H232.92l.144.277Z" transform="translate(-108.746 -18.429)" fill="#fff"/>
    <path id="Path_3573" data-name="Path 3573" d="M246.757,44.982l2.746-5.225.149-.277H243.83l2.911,5.534Z" transform="translate(-113.84 -18.429)" fill="#fff"/>
    <path id="Path_3574" data-name="Path 3574" d="M225.523,48.431l.107-.336,2.735-8.413.064-.2h-1.4a4.4,4.4,0,0,0-3.732,2.074L225.39,48Z" transform="translate(-104.255 -18.429)" fill="#fff"/>
    <path id="Path_3575" data-name="Path 3575" d="M257.568,48.1l.112.336.139-.426,2.1-6.451a4.4,4.4,0,0,0-3.732-2.074H254.79l.064.2Z" transform="translate(-118.957 -18.429)" fill="#fff"/>
    <path id="Path_3576" data-name="Path 3576" d="M257.189,57.515a94.427,94.427,0,0,1-5.982,28.692c-.075.2-.155.405-.229.6a89.208,89.208,0,0,1-3.78,8.471l-.165.32q-.666,1.29-1.359,2.538l.853,1.493-2.132.709c-.746,1.242-1.519,2.458-2.314,3.636-13.706-2.612-34.221-4.633-58.456-5.678q-7.2-.32-14.81-.506l-3.513-.085q-8.231-.176-16.825-.2h-6.488q-8.588.032-16.83.213c-1.178.027-2.356.053-3.524.091-5.065.128-10.012.3-14.8.533-24.283,1.066-44.781,3.108-58.392,5.747A89.562,89.562,0,0,1,35.494,73.7c-.293-1.285-.533-2.57-.784-3.849-.176-.97-.341-1.946-.49-2.911h0l-2.01-1.429,1.573-1.834q-.368-3.1-.533-6.147A112.919,112.919,0,0,1,51.29,39.213c14.117,9.937,34.567,17.534,58.466,21.378,3.657.586,7.4,1.066,11.2,1.493q3.561.384,7.2.656,3.966.3,8,.453v-1.1a23.457,23.457,0,1,1,18.126,0v1.125q4.046-.149,8-.437,3.62-.267,7.165-.645c1.471-.149,2.927-.32,4.377-.5l1.269-1.983,3.46,1.343c.725-.1,1.439-.2,2.132-.315,23.99-3.79,44.5-11.35,58.722-21.261a110.5,110.5,0,0,1,8.626,7.778c1.466,1.466,2.863,2.959,4.222,4.473.57.645,1.141,1.29,1.7,1.941a.727.727,0,0,0,.064.064l2.09-.421-.533,2.25C256.107,56.172,256.656,56.849,257.189,57.515Z" transform="translate(-15.037 -7.931)" fill="url(#radial-gradient)"/>
    <path id="Path_3577" data-name="Path 3577" d="M314.163,209.133l-.922,1.2-1.6.08-.773,1.386.464-1.8,1.178-.181.224-1.173a8.632,8.632,0,0,0-1.914-.213c-3.828,0-6.931,2.458-6.931,5.491a5.129,5.129,0,0,0,2.527,4.265l.922,2.767,1.247.283.677-1.988.4,3.012,1.2.283.1-3.327.928,3.279,1.151-.672.219-2.607.533,1.893,1.749-1.775.139-1.477a5,5,0,0,0,2.063-3.913A5.513,5.513,0,0,0,314.163,209.133Zm-7.1,5.747S304.8,214.917,306,212a4.291,4.291,0,0,1,2.873,1c1.072,1.072,1.114,1.8,1.653,1.765a2.517,2.517,0,0,1-1.381,0A5.276,5.276,0,0,0,307.062,214.88Zm3.956,2.442a5.332,5.332,0,0,0-1.786,1.215s.954-2,1.786-2.394c0,0,1.349,1.066,1.477,1.743A11.611,11.611,0,0,0,311.018,217.322Zm3.524-2.442a5.247,5.247,0,0,0-2.074-.117,2.516,2.516,0,0,1-1.381,0c.533.037.576-.688,1.653-1.765a4.267,4.267,0,0,1,2.873-1C316.807,214.917,314.542,214.88,314.542,214.88Z" transform="translate(-141.881 -97.314)" fill="#fa9b00"/>
    <path id="Path_3578" data-name="Path 3578" d="M171.435,211.7v-.219a13.441,13.441,0,0,0-3.38-3.081,1.6,1.6,0,0,0-.458.064,1.781,1.781,0,0,0-1.519-.848,1.55,1.55,0,0,0-.272,0h0l-.3.075h0a1.828,1.828,0,0,0-.293.133l-.043-.032a1.786,1.786,0,0,0-2.8,1.066,1.6,1.6,0,0,1-.037.229c0,.048,0,.1,0,.155a1.434,1.434,0,0,0,0,.213c-.107.1-.208.2-.309.3a1.6,1.6,0,0,1-.272.3,7.565,7.565,0,0,0,5.715,12.523,7.644,7.644,0,0,0,1.451-.139,4.681,4.681,0,0,1-.107-9.063,1.786,1.786,0,0,0,3.487.405,1.71,1.71,0,0,0,.08-.533A1.786,1.786,0,0,0,171.435,211.7Zm-5.672,9.82c-8.743-5.651-2.431-10.593-2.431-10.593-4.361,5.7,2.431,10.593,2.431,10.593-7.346-6.616-.453-10.721-.453-10.721-5.171,5.331.453,10.721.453,10.721s-5.475-6.056.965-9.527A7.082,7.082,0,0,0,165.763,221.524Z" transform="translate(-74.653 -96.851)" fill="#fa9b00"/>
    <path id="Path_3579" data-name="Path 3579" d="M361.338,218.157c-1.439,4.521-2.271,6.792-2.271,6.792a8.8,8.8,0,0,1,1.066-8.141,22.761,22.761,0,0,0-2.719-2.548,5.939,5.939,0,1,0,8.53,7.09A9.994,9.994,0,0,1,361.338,218.157Z" transform="translate(-165.455 -100.031)" fill="#fa9b00"/>
    <path id="Path_3580" data-name="Path 3580" d="M265.359,207.252a6.4,6.4,0,0,0-5.208-3.87l-.618-3.732-.613,3.732a6.246,6.246,0,0,0-1.94.48,6.4,6.4,0,0,0-3.886,5.331l-3.732.613,3.732.618a6.344,6.344,0,0,0,1.834,3.833,6.493,6.493,0,0,0,2.037,1.37,6.305,6.305,0,0,0,1.919.48l.634,3.806.64-3.822a6.4,6.4,0,0,0,5.187-3.865,6.269,6.269,0,0,0,.458-1.775l3.865-.645-3.849-.634A6.453,6.453,0,0,0,265.359,207.252Zm-10.252-1.85,1.53,3.2-3.3.533A6.131,6.131,0,0,1,255.107,205.4Zm-1.754,5.1,3.284.533-1.482,3.113A6.147,6.147,0,0,1,253.353,210.5Zm1.866,3.732,3.113-1.482.533,3.151a6.115,6.115,0,0,1-3.646-1.706Zm3.113-7.277-3.2-1.53a6.147,6.147,0,0,1,3.764-1.77Zm5.523-1.482-3.119,1.482-.533-3.284a6.136,6.136,0,0,1,3.652,1.765Zm-3.641,10.358.533-3.14,3.017,1.439A6.189,6.189,0,0,1,260.214,215.83Zm3.652-1.818-1.434-2.98,3.14-.533a6.115,6.115,0,0,1-1.706,3.535Zm-1.434-5.422,1.482-3.119a6.163,6.163,0,0,1,1.674,3.641Z" transform="translate(-116.422 -93.21)" fill="#fa9b00"/>
    <path id="Path_3581" data-name="Path 3581" d="M373.7,109.469h0l.048-.069Z" transform="translate(-174.474 -51.073)" fill="#067080"/>
    <path id="Path_3582" data-name="Path 3582" d="M260.382,44.586a109.59,109.59,0,0,0-14.746-18.227q-2.863-2.863-5.864-5.454l-1.893.949-1.066-3.417a105.463,105.463,0,0,0-12.485-8.722A98.551,98.551,0,0,1,210.37,21.854a127,127,0,0,1-42.318,19.315q-3.449.89-7,1.6a32.52,32.52,0,1,0-61.761-.123q-3.551-.746-7-1.642h0c-.784-.2-1.562-.421-2.335-.634l-.283,2.276L88.3,39.911A124.463,124.463,0,0,1,50.309,21.657,98.626,98.626,0,0,1,36.379,9.512a106.175,106.175,0,0,0-13.418,9.4q-.144-.181-.272-.368c-.117.288-.224.576-.325.864h0q-3.913,3.247-7.618,6.93c-.656.656-1.3,1.322-1.93,1.989l-.976,3.657-2.932.677A107.947,107.947,0,0,0,0,44.586,92.762,92.762,0,0,0,2.329,65.74c.581,2.57,1.263,5.081,2.031,7.528a87.809,87.809,0,0,0,10.1,21.623H18.77l-3.433,1.322q1.519,2.234,3.145,4.3a66.255,66.255,0,0,0,9.063,9.463q2.132,1.791,4.313,3.327,1.919-.816,4.046-1.6c1.733-.64,3.577-1.253,5.507-1.85a21.149,21.149,0,0,0-.229-2.175l3.764,1.13a255.91,255.91,0,0,1,41.935-7.5q5.635-.581,11.553-1.018,3.662-.272,7.416-.474,7.687-.432,15.727-.586,4.409-.085,8.9-.085c1.989,0,3.956,0,5.918.043l2.879-3.241.6,3.295c4.99.1,9.895.283,14.687.533q3.732.2,7.394.464,5.907.426,11.553,1h0c16.4,1.679,30.921,4.265,42.542,7.56q4.862,1.375,9,2.889c1.3.474,2.527.954,3.705,1.45q1.994-1.391,3.9-3.012h0a66.445,66.445,0,0,0,9.377-9.809A85.3,85.3,0,0,0,256,73.267q.405-1.3.784-2.634L255.451,69.3l2.82-4.7q.394-1.834.714-3.657l-2.447-.7,2.831-1.6A90.469,90.469,0,0,0,260.382,44.586ZM239.932,65.74a95.811,95.811,0,0,1-3.764,12.528c-.08.2-.155.405-.235.6a87.858,87.858,0,0,1-3.774,8.471l-.165.32q-.666,1.29-1.365,2.538l.853,1.493-2.132.709c-.746,1.242-1.519,2.458-2.314,3.636-13.706-2.612-34.221-4.633-58.456-5.678q-7.2-.32-14.81-.506l-3.513-.085q-8.231-.176-16.825-.2h-6.483q-8.588.032-16.83.213c-1.178.027-2.356.053-3.524.091-5.065.128-10.012.3-14.8.533C67.507,91.468,47.009,93.51,33.4,96.149A89.563,89.563,0,0,1,20.454,65.761c-.288-1.285-.533-2.57-.778-3.849-.176-.97-.347-1.946-.5-2.911h0l-2.01-1.429,1.573-1.834q-.368-3.1-.533-6.147A112.919,112.919,0,0,1,36.251,31.274c14.117,9.937,34.567,17.534,58.466,21.378,3.657.586,7.4,1.066,11.2,1.493q3.561.384,7.2.656,4,.3,8,.453v-1.1a23.457,23.457,0,1,1,18.126,0v1.125q4.046-.149,8-.437,3.62-.267,7.165-.645c1.471-.149,2.927-.32,4.377-.5l1.269-1.983,3.46,1.343c.725-.1,1.439-.2,2.132-.315,23.99-3.79,44.5-11.35,58.722-21.261a110.5,110.5,0,0,1,8.626,7.778c1.466,1.466,2.868,2.959,4.222,4.473q.864.965,1.7,1.941l.059.064,2.09-.421-.533,2.25c.533.672,1.1,1.349,1.631,2.031a94.321,94.321,0,0,1-2.223,16.148Z" transform="translate(0.003 0.008)" fill="url(#linear-gradient)"/>
    <path id="Path_3583" data-name="Path 3583" d="M228.419,75.3l-.064-.2-2.735-8.391-.107-.336-.144.432-2.09,6.445a4.4,4.4,0,0,0,3.732,2.074Z" transform="translate(-104.245 -30.983)" fill="#fff"/>
    <path id="Path_3584" data-name="Path 3584" d="M235.815,72.772,233.069,78l-.149.272h5.816l-2.905-5.534Z" transform="translate(-108.746 -33.957)" fill="#fff"/>
    <path id="Path_3585" data-name="Path 3585" d="M249.5,78l-2.746-5.23-.016-.032-2.911,5.534h5.822Z" transform="translate(-113.84 -33.957)" fill="#fff"/>
    <path id="Path_3586" data-name="Path 3586" d="M257.66,66.33l-.107.357-2.73,8.413-.064.2h1.391a4.4,4.4,0,0,0,3.732-2.074l-2.1-6.445Z" transform="translate(-118.943 -30.964)" fill="#fff"/>
    <path id="Path_3587" data-name="Path 3587" d="M235.815,44.982l.016.032,2.905-5.534H232.92l.144.277Z" transform="translate(-108.746 -18.429)" fill="#fff"/>
    <path id="Path_3588" data-name="Path 3588" d="M246.757,44.982l2.746-5.225.149-.277H243.83l2.911,5.534Z" transform="translate(-113.84 -18.429)" fill="#fff"/>
    <path id="Path_3589" data-name="Path 3589" d="M225.523,48.431l.107-.336,2.735-8.413.064-.2h-1.4a4.4,4.4,0,0,0-3.732,2.074L225.39,48Z" transform="translate(-104.255 -18.429)" fill="#fff"/>
    <path id="Path_3590" data-name="Path 3590" d="M257.568,48.1l.112.336.139-.426,2.1-6.451a4.4,4.4,0,0,0-3.732-2.074H254.79l.064.2Z" transform="translate(-118.957 -18.429)" fill="#fff"/>
    <path id="Path_3591" data-name="Path 3591" d="M314.163,209.133l-.922,1.2-1.6.08-.773,1.386.464-1.8,1.178-.181.224-1.173a8.632,8.632,0,0,0-1.914-.213c-3.828,0-6.931,2.458-6.931,5.491a5.129,5.129,0,0,0,2.527,4.265l.922,2.767,1.247.283.677-1.988.4,3.012,1.2.283.1-3.327.928,3.279,1.151-.672.219-2.607.533,1.893,1.749-1.775.139-1.477a5,5,0,0,0,2.063-3.913A5.513,5.513,0,0,0,314.163,209.133Zm-7.1,5.747S304.8,214.917,306,212a4.291,4.291,0,0,1,2.873,1c1.072,1.072,1.114,1.8,1.653,1.765a2.517,2.517,0,0,1-1.381,0A5.276,5.276,0,0,0,307.062,214.88Zm3.956,2.442a5.332,5.332,0,0,0-1.786,1.215s.954-2,1.786-2.394c0,0,1.349,1.066,1.477,1.743A11.611,11.611,0,0,0,311.018,217.322Zm3.524-2.442a5.247,5.247,0,0,0-2.074-.117,2.516,2.516,0,0,1-1.381,0c.533.037.576-.688,1.653-1.765a4.267,4.267,0,0,1,2.873-1C316.807,214.917,314.542,214.88,314.542,214.88Z" transform="translate(-141.881 -97.314)" fill="url(#linear-gradient-2)"/>
    <path id="Path_3592" data-name="Path 3592" d="M171.435,211.7v-.219a13.441,13.441,0,0,0-3.38-3.081,1.6,1.6,0,0,0-.458.064,1.781,1.781,0,0,0-1.519-.848,1.55,1.55,0,0,0-.272,0h0l-.3.075h0a1.828,1.828,0,0,0-.293.133l-.043-.032a1.786,1.786,0,0,0-2.8,1.066,1.6,1.6,0,0,1-.037.229c0,.048,0,.1,0,.155a1.434,1.434,0,0,0,0,.213c-.107.1-.208.2-.309.3a1.6,1.6,0,0,1-.272.3,7.565,7.565,0,0,0,5.715,12.523,7.644,7.644,0,0,0,1.451-.139,4.681,4.681,0,0,1-.107-9.063,1.786,1.786,0,0,0,3.487.405,1.71,1.71,0,0,0,.08-.533A1.786,1.786,0,0,0,171.435,211.7Zm-5.672,9.82c-8.743-5.651-2.431-10.593-2.431-10.593-4.361,5.7,2.431,10.593,2.431,10.593-7.346-6.616-.453-10.721-.453-10.721-5.171,5.331.453,10.721.453,10.721s-5.475-6.056.965-9.527A7.082,7.082,0,0,0,165.763,221.524Z" transform="translate(-74.653 -96.851)" fill="url(#linear-gradient-3)"/>
    <path id="Path_3593" data-name="Path 3593" d="M361.338,218.157c-1.439,4.521-2.271,6.792-2.271,6.792a8.8,8.8,0,0,1,1.066-8.141,22.761,22.761,0,0,0-2.719-2.548,5.939,5.939,0,1,0,8.53,7.09A9.994,9.994,0,0,1,361.338,218.157Z" transform="translate(-165.455 -100.031)" fill="url(#linear-gradient-4)"/>
    <path id="Path_3594" data-name="Path 3594" d="M123.188,215.861a3.385,3.385,0,0,1-1-3.471,5.208,5.208,0,0,0-1.066-4.19c.586,1.226.842,1.258.117,4.009A3.076,3.076,0,0,0,123.188,215.861Z" transform="translate(-56.547 -97.202)" fill="url(#linear-gradient-5)"/>
    <path id="Path_3595" data-name="Path 3595" d="M129.972,217.034a2.61,2.61,0,0,0,1.194,1.791s-.7-.506-.347-1.791a3.317,3.317,0,0,0-.16-2.8C131.038,215.286,129.721,216.032,129.972,217.034Z" transform="translate(-60.666 -100.017)" fill="url(#linear-gradient-6)"/>
    <path id="Path_3596" data-name="Path 3596" d="M123.4,219.948A2.33,2.33,0,0,1,122.07,222c1.018-1.829-.411-4.409-1.642-5.075a2.354,2.354,0,0,1-1.317-2.911c-1.322,1.247.256,1.781,1.2,4.468a2.735,2.735,0,0,1-1.391,3.567c1.029-1.114.89-2.783-.464-3.247-.88-.3-3.4-1.861-2.516-3.129a5.435,5.435,0,0,0,.7-3.172c0,1.4-2.3,2.026-2.426,3.311s1.781,1.8,2.132,2.943-.933,2-1.9,2.346a2.457,2.457,0,0,0-2.01,2.575c-.128,2.1,2.666,2.319,3.449,2.943s.6,1.146.6,1.146a1.018,1.018,0,0,1,.922-.336,6.659,6.659,0,0,0,5.235-.906C125.162,224.73,123.4,219.948,123.4,219.948Zm-5.795,7.128s.16-.725-.858-.208a2.714,2.714,0,0,0-.656-2.207c-.885-.858-1.5-2.18-.586-2.479s2.132-.277,2.239-1.381c0,0,.437,1.967-.448,2.756s.171,1.6.171,1.6a.832.832,0,0,1,.245.586v.187s1.066.112,1-.874c-.171-2.244.666-3.311,2.484-3.481,0,0-1.909.427-2.175,3.551-.069.816.394.576-.171,1.343a5.307,5.307,0,0,0,2.863-2.132c-.027.016.251,3.279-4.132,2.74Z" transform="translate(-52.492 -99.209)" fill="url(#linear-gradient-7)"/>
    <path id="Path_3597" data-name="Path 3597" d="M226.519,209.168s0-1.13,1.781-.917a1.749,1.749,0,0,0-1.727-1.1,1.349,1.349,0,0,1-1.338,1.642S225.064,209.573,226.519,209.168Z" transform="translate(-105.155 -96.709)" fill="url(#linear-gradient-8)"/>
    <path id="Path_3598" data-name="Path 3598" d="M218.652,210.07s-.245.032-.576.043l-.176.1a21.009,21.009,0,0,0-1.839,1.146c.565.453,1.237,1.6,1.226,4.377,0,0-.336-2.788-2.132-3.694-.56.432-1.066.874-1.567,1.311a6.067,6.067,0,0,1-.261,4.265c.341-2.266-.091-3.236-.41-3.636a24.39,24.39,0,0,0-3.636,4.441,37.308,37.308,0,0,1,2.271-4q.389-.6.784-1.136c-.741-.97-2.714-.267-2.73-.256a2.708,2.708,0,0,1,3.124-.267,23.527,23.527,0,0,1,1.53-1.8c-.245-1.423-2.207-1.386-2.207-1.386a2.7,2.7,0,0,1,2.863.725c.432-.416.832-.773,1.194-1.066v-.069s-2.132-3.327-5.363-.245A8.706,8.706,0,0,0,208.9,214.6a7.034,7.034,0,0,1-1.391,5.017s3.444.533,9.735-2.346S220.107,209.99,218.652,210.07Z" transform="translate(-96.882 -96.929)" fill="url(#linear-gradient-9)"/>
    <path id="Path_3599" data-name="Path 3599" d="M265.359,207.252a6.4,6.4,0,0,0-5.208-3.87l-.618-3.732-.613,3.732a6.246,6.246,0,0,0-1.94.48,6.4,6.4,0,0,0-3.886,5.331l-3.732.613,3.732.618a6.344,6.344,0,0,0,1.834,3.833,6.493,6.493,0,0,0,2.037,1.37,6.305,6.305,0,0,0,1.919.48l.634,3.806.64-3.822a6.4,6.4,0,0,0,5.187-3.865,6.269,6.269,0,0,0,.458-1.775l3.865-.645-3.849-.634A6.453,6.453,0,0,0,265.359,207.252Zm-10.252-1.85,1.53,3.2-3.3.533A6.131,6.131,0,0,1,255.107,205.4Zm-1.754,5.1,3.284.533-1.482,3.113A6.147,6.147,0,0,1,253.353,210.5Zm1.866,3.732,3.113-1.482.533,3.151a6.115,6.115,0,0,1-3.646-1.706Zm3.113-7.277-3.2-1.53a6.147,6.147,0,0,1,3.764-1.77Zm5.523-1.482-3.119,1.482-.533-3.284a6.136,6.136,0,0,1,3.652,1.765Zm-3.641,10.358.533-3.14,3.017,1.439A6.189,6.189,0,0,1,260.214,215.83Zm3.652-1.818-1.434-2.98,3.14-.533a6.115,6.115,0,0,1-1.706,3.535Zm-1.434-5.422,1.482-3.119a6.163,6.163,0,0,1,1.674,3.641Z" transform="translate(-116.422 -93.21)" fill="url(#linear-gradient-10)"/>
    <path id="Path_3600" data-name="Path 3600" d="M373.7,109.469h0l.048-.069Z" transform="translate(-174.474 -51.073)" fill="#067080"/>
    <path id="Path_3601" data-name="Path 3601" d="M73.512,116l-.24.3a1.481,1.481,0,0,0,0-.3c-.272-.069-.149-.123-.181-.165s-.176,0-.267-.288h.059c-.032,0-.059-.043-.091-.048V115.4c0,.032-.059.064-.059.1a1.279,1.279,0,0,1-.389-.16c0-.043-.117-.053-.325-.08v-.075H71.9a1.65,1.65,0,0,1-.064-.229l-.267-.331H71.6a3.992,3.992,0,0,0-.448-.469c0-.037,0-.075,0-.08s-.064-.133-.091-.2-.032,0-.059-.048-.032-.037,0-.037c-.064-.091-.123-.192-.181-.283v-.043l-.24-.672c-.043-.171-.08-.336-.123-.533s-.075-.41-.117-.613a.864.864,0,0,0-.059-.309,1.631,1.631,0,0,0-.059-.315v.08a5.448,5.448,0,0,1-.117-.7,1.6,1.6,0,0,1-.064-.613,1.241,1.241,0,0,0-.059-.272c-.021-.091-.059-.336-.085-.533a2.026,2.026,0,0,1-.032-.757,1.717,1.717,0,0,0,.325-.72l.208-.331.24-.624h-.032a4.44,4.44,0,0,1,1.274-2.01,2.5,2.5,0,0,1,.6-.629l.149-.037h-.091a3.679,3.679,0,0,1,2.164-.741l.533.059a4.547,4.547,0,0,1,1.37.224h.176a1.3,1.3,0,0,1,.384.053h.357a2.393,2.393,0,0,1,.922.08c.325.08,2.527.581,2.852.752.091,0,.059.048.149.069a1.066,1.066,0,0,1,.565.794v.16a3.279,3.279,0,0,0-.091.533.146.146,0,0,0,.032.107.421.421,0,0,1,.149.533c0,.1.059.181.091.421a2.755,2.755,0,0,1,.059.411,5,5,0,0,0-.293.949c0,.165-.085.251-.3.245a16.439,16.439,0,0,1-3.657-.864h-.08a3.86,3.86,0,0,0-.864-.171,1.482,1.482,0,0,0-.624,0l-.714.069h.032c-.091,0-.181.107-.267.123v-.032l-.357.144a.405.405,0,0,0-.208.421.533.533,0,0,0-.384.213h0c-.091.229-.208.458-.325.688v-.032a2.778,2.778,0,0,0-.176.976,2.9,2.9,0,0,0,.117,1.242c0,.037.032.117.032.149s-.032,0,0,.107a1.68,1.68,0,0,0,.208.395,2.773,2.773,0,0,0,.533.688l.3.261H75.2a7.5,7.5,0,0,0,.778.533c.085,0,.117.091.144.1.133.085.261.176.389.267a.229.229,0,0,1,.149.091c.091,0,.181.091.267.107l.421.2c.208.128.384.117.533.245h0c.357.187.773.416,1.1.624s.656.389.986.57a.08.08,0,0,1,.059.037h.037a2.708,2.708,0,0,1,.9.72c.192.213.379.426.57.634h-.032a2.666,2.666,0,0,1,.533.656c.1.165.2.331.3.5a4.2,4.2,0,0,1,.213.485c.117.08.176.149.176.251a.922.922,0,0,1,.123.411c.043.133.08.272.123.405l-.032-.037a2.516,2.516,0,0,1,.24.784,1.948,1.948,0,0,0,.064.3.431.431,0,0,1,0,.165h0a1.231,1.231,0,0,1,.059.3v1.029a1.7,1.7,0,0,1-.149.533v.165c0,.1-.032.1,0,.2v.229c-.032.187-.059.373-.091.56s-.08.395-.117.592a3.262,3.262,0,0,1-.917,1.642,6.506,6.506,0,0,1-.89.736,4.264,4.264,0,0,1-.981.565,1.958,1.958,0,0,0-.357.064,4.022,4.022,0,0,1-.48.064l-.506.1a1.727,1.727,0,0,1-.48.069,2.964,2.964,0,0,1-.533,0,6.722,6.722,0,0,1-.864.064c-.149,0-.3-.037-.448-.037a1.379,1.379,0,0,0-.389-.037,4.989,4.989,0,0,1-1.253.1.533.533,0,0,1-.272.032,4.031,4.031,0,0,1-1.791-.3H72.8c-.746-.187-.837-.336-.864-1.034l-.064-.3v.037c-.037-.187-.08-.368-.117-.533l.032.037c-.032-.085-.064-.176-.091-.261a2.3,2.3,0,0,1-.181-.853.762.762,0,0,0,0-.629v-.187l.24-.613a3.667,3.667,0,0,0,.981.16,2.053,2.053,0,0,0,.533.059l.746.037a4.068,4.068,0,0,0,1.6.117.709.709,0,0,1,.24.08h.181l.384-.053a3.471,3.471,0,0,0,.778-.1,4.413,4.413,0,0,1,1.066-.091.576.576,0,0,0,.565-.352c0-.032.032-.1.059-.235a2.287,2.287,0,0,0,.149-.992c-.032-.379-.032-.794-.032-1.242a.864.864,0,0,0-.064-.448,3,3,0,0,0-.474-1.066,2.2,2.2,0,0,0-1.4-1.066,1.03,1.03,0,0,1-.331-.139c-.24-.2-.746-.394-1.221-.693l-.3-.176h.043a.816.816,0,0,1-.363-.293.677.677,0,0,1-.357-.075l-.357-.224c-.091,0-.149-.085-.235-.133v.037c-.091-.048-.032-.08-.123-.123Zm-3.007-3.065q-.048-.176,0-.112ZM72.1,114s-.059,0-.059.027h.016s.037.011.048,0Zm.331.08-.064-.043c-.059,0-.085,0-.059.064.005-.011.037-.005.128.005Zm.416.464v.032l-.032.032c.032,0,.032,0,.032.043v.139l.059-.069a.32.32,0,0,0,.267.037l-.149-.2v-.405c-.149.053-.24.075-.208.08h-.064l-.117-.091v-.112a.7.7,0,0,1-.059.064h-.117l.176.1a.581.581,0,0,0,.149.346Zm-.181.411c-.059,0-.085,0-.117.133a1.5,1.5,0,0,1,.656.123,2,2,0,0,1,.059-.357.2.2,0,0,0-.149.053c-.117-.053-.208-.064-.267,0v-.075c-.032.032-.032.037-.032,0Zm-.059-.96c.032,0,.032,0,0-.037Zm.149,1.482c.032,0,.032,0,.032.043a.118.118,0,0,0-.059-.048Zm.059-.869c0-.032-.027-.037-.027-.075a.133.133,0,0,0-.032.107Zm0,.219.032-.032v-.005a.335.335,0,0,0-.059.064Zm.24.506c0,.149,0,.149.149.059v-.037Zm.656.155v-.032s.005-.048.005.059Zm.3.256-.032-.149c-.059,0-.091,0-.059.139Zm0,.187.181-.075-.176-.1Z" transform="translate(-32.61 -48.151)" fill="url(#linear-gradient-11)"/>
    <path id="Path_3602" data-name="Path 3602" d="M109.242,112.7c-.091.107-.032.261,0,.384a.789.789,0,0,1,.123.4,1.066,1.066,0,0,0,.181.5,4.265,4.265,0,0,1,.453,1.173,7.613,7.613,0,0,1,.336,1.557,1.066,1.066,0,0,1,.091.6c0,.117-.059.192-.059.315a3.732,3.732,0,0,1-.288,1.253,4.8,4.8,0,0,1-.448.752.938.938,0,0,0-.293.592.656.656,0,0,1-.325.474.922.922,0,0,0-.325.208l-.272.277a1.008,1.008,0,0,1-.235.187c-.208.139-.384.331-.624.464a9.54,9.54,0,0,1-1.189.533c-.448.117-.9.3-1.343.389a2.746,2.746,0,0,1-.714.107,2.191,2.191,0,0,1-.656.048,1.28,1.28,0,0,1-.389,0c-.565,0-1.066,0-1.637-.053a.288.288,0,0,0-.181.149.5.5,0,0,0-.085.277c0,.469,0,.944.032,1.445a12.414,12.414,0,0,1,.037,1.887v1.194c0,.405.032.789.032,1.168a1.786,1.786,0,0,0,.155.72v.032c-.091.091-.181.1-.181.187-.085.224-.267.219-.384.251l-1.285.085a10.551,10.551,0,0,1-1.066.027,6.091,6.091,0,0,0-1.066.059h-.085c-.091,0-.149-.064-.181-.165a8.434,8.434,0,0,1-.123-1.53v-.688a.378.378,0,0,0-.091-.357.214.214,0,0,1-.032-.133,1.231,1.231,0,0,1,.059-.65c.032-.032.032-.1.032-.2a8.61,8.61,0,0,0,.053-.906,6.4,6.4,0,0,0,0-.784,8.713,8.713,0,0,1,.059-1.066c.016-.373-.032-.65-.032-.944s.085-.645.085-1.008a2.667,2.667,0,0,0-.064-.816.992.992,0,0,1-.032-.72,1.36,1.36,0,0,0,0-.688,3.305,3.305,0,0,1,.053-1.232.89.89,0,0,0,0-.533,1.743,1.743,0,0,1-.155-.832,1.172,1.172,0,0,0-.027-.3c-.155-.442-.181-.869-.336-1.285v-.1a1.066,1.066,0,0,0,0-.331c-.091-.24,0-.533-.1-.832a1.136,1.136,0,0,1,.032-.256,4.981,4.981,0,0,1,.2-.533.331.331,0,0,0-.059-.368l-.149-.219c-.123-.384-.181-.688-.272-1a.533.533,0,0,1,0-.235,3.326,3.326,0,0,0-.1-.741,2.916,2.916,0,0,1,.059-1.136,3.542,3.542,0,0,1,.144-.5c.032-.352.24-.533.357-.874l.085-.08a2.462,2.462,0,0,1,.48-.2c.235-.053.474,0,.709-.053s.533.043.864,0h.091a3.282,3.282,0,0,0,.565.176.981.981,0,0,0,.565,0,.437.437,0,0,1,.474.16.469.469,0,0,0,.629.149l.384-.208a1.093,1.093,0,0,1,.267-.1,1.786,1.786,0,0,1,.533,0,.72.72,0,0,1,.629.336.672.672,0,0,1,.176.155.533.533,0,0,0,.565.2l.181-.059c.149-.064.3,0,.448-.069a.592.592,0,0,1,.533.128l.181.1a9.233,9.233,0,0,1,1.6.885,1.263,1.263,0,0,1,.384.272c.149.117.272.256.421.4a2.6,2.6,0,0,0,.533.618c.235.245.448.368.448.72a.666.666,0,0,1,.533.347A.533.533,0,0,1,109.242,112.7Zm-7.586,2.426c-.149.576-.053,1.215-.171,1.8-.032.187-.059.373-.091.533a.624.624,0,0,0,.48.81,9.991,9.991,0,0,1,1.226.405.9.9,0,0,0,.506.149.677.677,0,0,0,.533-.229c.208-.192.448-.288.682-.48a.976.976,0,0,0,.533-.533c.091-.235.208-.4.3-.634.085-.08.085-.2.117-.288a1.8,1.8,0,0,0,.059-.267c0-.117.085-.2.059-.293a1.466,1.466,0,0,0-.485-.944l-.416-.389a.677.677,0,0,0-.57-.139.959.959,0,0,1-.533-.165.368.368,0,0,0-.149-.112.768.768,0,0,0-.57-.2,5.352,5.352,0,0,1-.864-.1.411.411,0,0,0-.474.277c-.085.235-.085.458-.176.666h.032Z" transform="translate(-44.985 -50.438)" fill="url(#linear-gradient-12)"/>
    <path id="Path_3603" data-name="Path 3603" d="M124.653,113.224c0-.5.053-1,.085-1.493a.533.533,0,0,0,.293-.064.5.5,0,0,1,.357-.091l1.066.176c.506.08,1.013.181,1.519.288.091,0,.091.043.181.059a4.093,4.093,0,0,0,.746.251.309.309,0,0,1,.208.229l.1.682v.224a3.729,3.729,0,0,0-.117.762c0,.315-.032.629-.053.944-.027.421-.112.826-.139,1.242a9,9,0,0,0-.085,1.279,6.024,6.024,0,0,1,0,1.034c0,.474-.085.944-.085,1.418l-.08.89v.816a2.33,2.33,0,0,0,0,.474,5.865,5.865,0,0,1,.037,1.237c0,.085-.027.224-.027.363V125.1a3.015,3.015,0,0,0-.059.533.661.661,0,0,1,.032.427c0,.085.032.171.032.251,0,.421.037.848,0,1.263a.911.911,0,0,0,.149.453.187.187,0,0,0,.181.091.927.927,0,0,0,.474.075c.688,0,1.285,0,1.914.032a10.313,10.313,0,0,1,1.551.208c.208.032.357.043.448-.043s.24-.069.325-.1c.24-.075.272,0,.272.224v.347c.1.533.128.97.219,1.487.091.245.032.485.123.7a.4.4,0,0,1-.112.405l-.357.24c-.213-.139-.363,0-.6-.059l.176-.053-.416-.112a.048.048,0,0,0,0-.027l.3-.053c.064,0,.091-.053.091-.133a.688.688,0,0,0-.325.053c-.149,0-.24.1-.389,0,0,.139-.091.219-.24.3-.117,0-.208-.139-.325-.139-.091.107,0,.165-.149.245,0-.085,0-.139-.032-.165-.117,0-.208.165-.3,0l-.091.027c-.085.219-.208.133-.325.133l-.091-.192c-.091.219-.091.245-.3.219-.027,0-.059-.027-.091-.027a1.129,1.129,0,0,0-.325,0,2.165,2.165,0,0,1-.72.053h-1.6c-.149,0-.3-.032-.448-.032a2.384,2.384,0,0,1-.421.027,4.446,4.446,0,0,0-.922,0,5.865,5.865,0,0,1-.688,0c-.208,0-.208,0-.24-.235a7.141,7.141,0,0,0-.272-.837,3.46,3.46,0,0,1-.123-.464.6.6,0,0,0-.213-.49.384.384,0,0,1-.064-.581.6.6,0,0,0,.117-.533,1.386,1.386,0,0,1,0-.693,1.824,1.824,0,0,0,.032-.432.618.618,0,0,0-.123-.437v-.032c0-.027.027-.027.027-.053a.3.3,0,0,1-.112-.245c0-.085-.032-.085-.032-.171a5.151,5.151,0,0,1-.123-.933c0-.144-.032-.261-.032-.469a.645.645,0,0,0,.3.048c.117-.2,0-.4,0-.634,0,.229-.208.187-.416.261a.347.347,0,0,1-.032-.176,2.386,2.386,0,0,1-.059-.352c0-.2-.032-.2.176-.16.123,0,.208.043.331-.037v-.261c0-.085.032-.2.032-.283a2.132,2.132,0,0,0,.085-.4,1.811,1.811,0,0,0,.059-.458v-.341a1.023,1.023,0,0,1,0-.315,1.007,1.007,0,0,1,0-.32v-.293a3.758,3.758,0,0,1,.053-1.407,1.369,1.369,0,0,0-.064-.379,1.722,1.722,0,0,1-.059-.64,2.468,2.468,0,0,0,0-.928,5.375,5.375,0,0,1-.037-.634v-.693a1.333,1.333,0,0,1-.064-.5.534.534,0,0,0,0-.32,1.866,1.866,0,0,1-.037-.981,2.031,2.031,0,0,0,.144-.848,3.517,3.517,0,0,1-.059-.416.922.922,0,0,0-.091-.384A.2.2,0,0,0,124.653,113.224Zm.128,12.112h-.064v.235h.059Zm6.589,6.189a.219.219,0,0,0,.091.059c.032,0,0,0,0-.032l-.117-.053Z" transform="translate(-58.012 -52.087)" fill="url(#linear-gradient-13)"/>
    <path id="Path_3604" data-name="Path 3604" d="M150.237,127.976c-.085.592-.08,1.114-.165,1.653a2.552,2.552,0,0,0-.032.5,6.818,6.818,0,0,0-.139,1.066,15.594,15.594,0,0,1-.229,1.631.213.213,0,0,1-.24.235.192.192,0,0,0-.027.128h-.059a2.448,2.448,0,0,1-.6-.133,4.2,4.2,0,0,0-.773-.107l-1.882-.171a2.133,2.133,0,0,1-.448-.032c-.149,0-.213-.053-.213-.192a4.5,4.5,0,0,1,0-.933,4.57,4.57,0,0,0-.032-.586,2.091,2.091,0,0,0,.053-.373,3.727,3.727,0,0,0,.085-.666c0-.72,0-1.445.048-2.191s.053-1.546.048-2.292a.245.245,0,0,1,.208-.229h.117a.4.4,0,0,0-.059-.085.394.394,0,0,1-.213-.384v-1.173c0-.613.053-1.253.053-1.919v-1.146a5.48,5.48,0,0,1,.027-.661c0-.347.027-.666.027-.986v-.906a.879.879,0,0,1,.027-.341c0-.107-.032-.165-.032-.272s0-.16.027-.181.032-.1.032-.181c0-.293-.064-.533-.037-.832a.946.946,0,0,1,.059-.235c0-.187,0-.16-.091-.277.149-.277.149-.272-.064-.432a2.086,2.086,0,0,1-.027.448.336.336,0,0,1-.181-.235c-.027-.085-.059-.112-.059-.139-.091-.149-.123-.256-.032-.352a.464.464,0,0,1,.149-.171.682.682,0,0,1,.149.288c.123-.064.208-.08.176-.272a.577.577,0,0,1,0-.213c-.032-.112.032-.155.117-.144a.533.533,0,0,1,.24,0,4.265,4.265,0,0,0,1.109.139l1.066.128c.272.059.533.123.778.149.091.032.181,0,.267.059a.272.272,0,0,1,.181.2l.1.89c.032.08,0,.133,0,.235a3.555,3.555,0,0,0,.064.4v2.65c0,.251.032.5.032.778v1.146a7.348,7.348,0,0,1-.085,1.136,3.137,3.137,0,0,0,.032.5.624.624,0,0,1-.027.411v.053a10.674,10.674,0,0,1,0,1.093,2.421,2.421,0,0,1,0,.832v1.141c0,.187-.027.336-.027.533v.6c0,.075.032.107.032.181a.5.5,0,0,1,.181-.149c.117,0,.176,0,.176.112A.474.474,0,0,1,150.237,127.976Zm-4.382-3.876h0v-.027l-.064.048a.112.112,0,0,0,.091.032Zm.187.65a.293.293,0,0,1-.149.075C145.983,124.879,146.042,124.879,146.042,124.751Zm.027-.288h.027c.091.085.032.112.123.192a.235.235,0,0,0,0-.208.245.245,0,0,1-.123,0h-.027c-.091,0-.123-.091-.123-.224C145.861,124.453,145.861,124.474,146.068,124.463Zm-.155-.533c.123.144.24,0,.363.075,0-.128-.064-.16-.149-.139Zm.155.331H146l.064.059.027-.027s0-.016-.027-.016Zm.1,1.018v-.027l-.091-.112a.2.2,0,0,1,.027-.133.139.139,0,0,1-.091.048.364.364,0,0,0,.064.085v.133l.059.053a.064.064,0,0,1,.032-.032Zm-.075-2.052-.059.048.059.053c0-.075.032-.048.032-.075Zm.187,1.471-.144.149c.027.032.027.032.027.059a.219.219,0,0,1,.149,0,.165.165,0,0,0,.059-.128c0-.032-.027-.059-.091-.064Zm.037,1.093.117-.128-.027-.027a.139.139,0,0,1-.059-.085,1.373,1.373,0,0,0-.059.213Zm2.33.331c.155.085.272.091.363-.037-.091-.08-.064-.128-.155-.139a.263.263,0,0,1-.208-.165c-.059-.107-.032,0-.123-.085,0,.027,0,.053-.059.048.149.085.064.107.064.187l.117.085Zm0-.709c-.032,0-.064.027-.064.048h0c0,.032,0,.032.032.032h.032Z" transform="translate(-67.865 -53.438)" fill="url(#linear-gradient-14)"/>
    <path id="Path_3605" data-name="Path 3605" d="M169.407,118.66l-.032-.075v-.48l1.349.1c.208.037.416.069.629.1l.928.069.357.075.064.437.08,3.769a1.184,1.184,0,0,1,0,.309v.165a2.853,2.853,0,0,1-.053,1.12c-.032,0-.032.069-.032.165s.1.24,0,.405a1.177,1.177,0,0,0,0,.336c0,.117.064.288-.085.4v.117a6.074,6.074,0,0,1-.059.618,2.665,2.665,0,0,0-.085.736v.741c0,.245-.032.336-.027.533s.032.432.032.624-.027.357-.027.533a.677.677,0,0,1-.059.261c0,.075.091.165,0,.261a.448.448,0,0,0-.027.288v.192c0,.069.032.144.032.213a.651.651,0,0,0,.059.261v.171c-.085.117-.117.165-.085.187a2.507,2.507,0,0,0,.123.533,1.028,1.028,0,0,0,.032.357,1.331,1.331,0,0,0,.059.309c0,.171-.059.336-.059.5v.576a.646.646,0,0,1,0,.235,4.434,4.434,0,0,1-.027.6,1.019,1.019,0,0,0-.059.5c.091.171-.059.219-.149.288s-.208-.069-.325,0a.437.437,0,0,0-.181.048,2.427,2.427,0,0,1-.416.117,1.423,1.423,0,0,1-.72-.24h0a1.717,1.717,0,0,0-.688-.1,1.391,1.391,0,0,0-.3,0,4.511,4.511,0,0,1-.6.048c-.208-.027-.448.048-.6-.027s-.325,0-.48-.1l-.384-.075c-.272-.075-.362-.1-.453-.368a1.344,1.344,0,0,0-.123-.613c-.123-.267-.3-.565-.421-.864l-.272-.714q-.12-.261-.213-.533l-.213-.5-.24-.533a4.474,4.474,0,0,0-.213-.448,1.951,1.951,0,0,0-.24-.5c-.032-.064-.064-.133-.091-.2a1.919,1.919,0,0,0-.213-.6c-.064-.091-.123-.187-.181-.277s-.123-.1-.149-.181a.784.784,0,0,1-.213-.5,4.958,4.958,0,0,0-.123-.5,1.487,1.487,0,0,0-.24-.608.987.987,0,0,1-.187-.458c-.027-.059-.059-.117-.091-.176s-.117-.224-.181-.336-.032-.325-.24-.432v-.027a.075.075,0,0,0-.032-.053l-.24-.613c-.064-.176-.149-.261-.3-.24s-.208.112-.149.288a.6.6,0,0,1,.032.3c0,.277.032.533.032.832a4.844,4.844,0,0,1,.064.677c0,.123-.027.224-.027.347a5.265,5.265,0,0,1-.085,1v.347c0,.117-.059.277-.059.453,0,.272.064.533.064.826v.576c0,.192.107,3.359.112,3.908.032.155.059.3.091.453l-.267.325-.389-.1-.384.075-.688-.08-.421.075-.8-.053-.091-.1c-.032-.117-.059-.24-.091-.357v-.112c0-1.407,0-2.815-.027-4.228v-.992c0-.08,0-.128.032-.155a.245.245,0,0,0,0-.2v-.2a7.618,7.618,0,0,1,.053-1.066v-.864c0-.107.027-.2.027-.3l-.064-.821v-.1l-.064-.411v-.485c0-.075.027-.123.027-.251v-.208a.629.629,0,0,1,0-.331c.032,0,.032,0,.032-.1v-.363c0-.053,0,0-.032-.053.091-.1,0-.2,0-.277s.032-.149.032-.224h0l-.064-.389c-.043-.325-.085-.65-.123-.976a6.145,6.145,0,0,1-.037-.794v-1.12c0-.128-.032-.283-.032-.464a1.778,1.778,0,0,0-.032-.411,3.734,3.734,0,0,1-.037-.821c0-.128.032-.2.117-.213l.362.037a5.625,5.625,0,0,1,.746.1c.213.027.48.069.688.091s.389.117.6.037h.027l.453.043a2.015,2.015,0,0,0,.656.112c.091-.064.24,0,.357-.037a.9.9,0,0,0,.272,0l.506-.053h.181c.085,0,.176.117.208.245a1.068,1.068,0,0,0,.064.325c0,.1.059.181.059.256a.826.826,0,0,0,.181.581c0,.075.064.107.064.181a.693.693,0,0,0,.123.426c.037.128.08.256.123.384a2.92,2.92,0,0,1,.24.709,1.791,1.791,0,0,0,.123.229,6.2,6.2,0,0,0,.181.677l.3.762a2.767,2.767,0,0,0,.181.379c.059.144.123.288.181.426s.059.139.091.2l.123.3a.3.3,0,0,1,.117.251,1.745,1.745,0,0,1,.155.379l.149.448c.091.075.064.176.155.2a.206.206,0,0,1,.149.2c0,.1-.027.293.181.3h.027a.818.818,0,0,1,.091.1.8.8,0,0,1,.213.57c0,.267.1.469.1.682,0,.075.027.08.027.1a.618.618,0,0,1,.123.368l.032.053a2.132,2.132,0,0,1,.213.592h0l.091.128.208.395a.533.533,0,0,0,.213.08c.117,0,.176-.139.176-.213,0-.2.027-.362.027-.533a2.41,2.41,0,0,1,0-.437,2.445,2.445,0,0,0,.059-.506v-.48a.564.564,0,0,0,.059-.192v-.656a1.627,1.627,0,0,0,0-.533.453.453,0,0,1,0-.267,2.376,2.376,0,0,0,.027-.458c-.032-.192-.091-.341,0-.506a8.034,8.034,0,0,1,.112-1.2A38.746,38.746,0,0,0,169.407,118.66Z" transform="translate(-74.4 -54.832)" fill="url(#linear-gradient-15)"/>
    <path id="Path_3606" data-name="Path 3606" d="M196.935,135.909l-.421-.091-.059-.16c-.208,0-.357-.1-.57.064v-.112a12.819,12.819,0,0,0-1.343-.048c-.208,0-.357-.027-.565-.027a3.622,3.622,0,0,0-.48,0,.171.171,0,0,1-.176-.112l-.128-1.2c-.032-.442-.064-.858-.064-1.3a6.6,6.6,0,0,1-.123-1.066c0-.187-.064-.373-.064-.533a2.528,2.528,0,0,1-.032-.49v-.784a.2.2,0,0,1-.032-.075,5.253,5.253,0,0,0-.064-.928,5.985,5.985,0,0,1,.027-.693c.091-.091.027-.208-.059-.3a1.487,1.487,0,0,1-.155-.677c0-.256-.032-.421-.032-.672a3.2,3.2,0,0,1-.123-.725c0-.069.027-.091.027-.16a1.222,1.222,0,0,0-.091-.469,1.38,1.38,0,0,1-.123-.4.779.779,0,0,0-.181-.5.48.48,0,0,1-.123-.533c.091-.208-.059-.448-.389-.533a4.083,4.083,0,0,0-.928-.16c-.24-.032-.506,0-.746-.037-.149,0-.272-.037-.421-.043a5.45,5.45,0,0,0-.656-.059c-.123,0-.213-.032-.3-.037s-.064,0-.123-.032a9.751,9.751,0,0,0-1.1.037c-.272,0-.389-.1-.395-.283,0-.357-.032-.666-.032-1.018v-.288a1.67,1.67,0,0,0-.155-.41.24.24,0,0,1,.091-.4.219.219,0,0,0,.085-.181,2.23,2.23,0,0,1,.059-.421c0-.117.059-.187.208-.2a1.861,1.861,0,0,1,.629,0c.149.032.3.091.533.128h.117a1.6,1.6,0,0,1,.57-.059l.986-.032a2.822,2.822,0,0,1,.474,0l1.29.075c.57,0,1.066,0,1.647.048h.533a12.293,12.293,0,0,1,1.253.043,19.067,19.067,0,0,1,2.276.08l1.109.048a2.526,2.526,0,0,0,.72,0,2.273,2.273,0,0,1,.357,0h.837a3.733,3.733,0,0,1,1.232.112c.208.032.3.08.448.107a.714.714,0,0,1,.357.261c.085.1-.027.224-.117.309a.911.911,0,0,1-.149.112.352.352,0,0,0-.181.261.267.267,0,0,0,.123.256.639.639,0,0,1,.208.208.32.32,0,0,1-.144.49c-.272.107-.24.309-.331.49v.272c0,.091-.091.2-.272.219a.293.293,0,0,0-.24.128c-.085.064-.149.064-.176,0-.091-.16-.24-.144-.389-.171-.448,0-.81-.048-1.258-.064-.272-.027-.506,0-.778-.027H198.4a2.329,2.329,0,0,0-.837.085.533.533,0,0,0-.181.085.736.736,0,0,0-.267.421c-.091.341-.059.64-.144.938,0,.251-.059.5-.059.773-.032.048-.032.091,0,.117,0,.341.059.64.064.938a3.781,3.781,0,0,1,0,.533v.506c0,.091.032.16.091.181a.106.106,0,0,1,.032.187c-.149.16-.176.293-.085.432v.107a.921.921,0,0,0,0,.3,3.1,3.1,0,0,1,.064.874c0,.2.032.411.032.618a8.267,8.267,0,0,0,0,.89v.57a.827.827,0,0,1,0,.256.41.41,0,0,0,.091.272.651.651,0,0,1,.059.139,1.478,1.478,0,0,1,.123.485.315.315,0,0,0,.149.139c.091,0,.24.048.272.16a.309.309,0,0,1-.091.32.682.682,0,0,0-.208.682v1.1a.256.256,0,0,1-.091.272.837.837,0,0,0-.208.187c-.085.064-.085.112-.208.043C196.972,135.8,196.972,135.867,196.935,135.909Z" transform="translate(-87.149 -55.938)" fill="url(#linear-gradient-16)"/>
    <path id="Path_3607" data-name="Path 3607" d="M221.155,136.156a.378.378,0,0,0-.181,0,2.9,2.9,0,0,0-1.642-.117,1.194,1.194,0,0,1-.357,0,3.65,3.65,0,0,1-.48,0,1.025,1.025,0,0,1-.208-.043c-.1-.064-.2-.123-.3-.181a.229.229,0,0,1-.149-.293l.267-.746a3.856,3.856,0,0,0,.176-1.168c.032-.432,0-.858,0-1.311a1.6,1.6,0,0,0-.091-.741.453.453,0,0,1-.032-.474,1.952,1.952,0,0,0,.117-1.066,5.251,5.251,0,0,1-.091-.629,2.841,2.841,0,0,1,0-1.018,4.02,4.02,0,0,1,.149-1.461c0-.357.117-.7.144-1.066a.4.4,0,0,0-.091-.432c-.208-.16-.149-.224,0-.405a.72.72,0,0,0,.176-.309,5.24,5.24,0,0,0-.037-1.823,7.221,7.221,0,0,1,0-.768c0-.16-.064-.251,0-.405a1.851,1.851,0,0,0,.149-.533.208.208,0,0,1,.208-.219,2.82,2.82,0,0,1,.629-.048,12.9,12.9,0,0,0,1.5.037,1.067,1.067,0,0,1,.267,0c.272,0,.57.059.842.064s.565,0,.9,0a4.155,4.155,0,0,0,.57-.037,2.223,2.223,0,0,1,.688,0,4.544,4.544,0,0,0,1.109,0,2.057,2.057,0,0,1,.9.059,2.991,2.991,0,0,0,.778.075,3.582,3.582,0,0,1,1.2-.032,1.136,1.136,0,0,0,.48.048,2.265,2.265,0,0,1,.778.048,1.113,1.113,0,0,0,.149,0c.357,0,.746,0,1.109.027s.448.117.448.357a3.732,3.732,0,0,1-.059,1,4.382,4.382,0,0,0-.181.912c0,.267-.091.533-.117.826-.032.139-.059.277-.091.421a.373.373,0,0,1-.117.133,1.466,1.466,0,0,1-.6.064,8.334,8.334,0,0,0-1.018-.139,14.594,14.594,0,0,0-1.674-.053h-.533a4.056,4.056,0,0,1-.869-.1,5.784,5.784,0,0,0-1.135-.1,6.478,6.478,0,0,0-.72,0c-.325.043-.533.2-.533.442a.933.933,0,0,0-.059.736c.032,0,.032.069.032.112,0,.32-.037.64-.059.96a.479.479,0,0,0,.059.181c.091.245.363.315.629.341.533.069.986.1,1.557.128a6.517,6.517,0,0,1,1.733.256c.272.069.533.091.842.16.448.069.8.091,1.253.181.272,0,.389.133.331.336a.464.464,0,0,0,.027.357.235.235,0,0,1,.032.245.437.437,0,0,0,.123.49c.037.043.08.085.117.133a.405.405,0,0,1-.059.6c-.032.027-.032.048-.032.091l.746.069a3.732,3.732,0,0,1,.687.064.533.533,0,0,1-.266.069,9.167,9.167,0,0,1-1.066-.091,1.066,1.066,0,0,0-.533.064c-.117.069-.208.069-.331.133a1,1,0,0,1-.656.091l-1.466-.187a1.508,1.508,0,0,1-.325-.091,3.871,3.871,0,0,0-1.6-.363H225.2a1.109,1.109,0,0,0-1.167.421.41.41,0,0,1-.117.176.783.783,0,0,0-.208.533v.464a.565.565,0,0,0,.091.533v.155a1.024,1.024,0,0,0,.389.629,1.034,1.034,0,0,0,.752.251c.448,0,.9,0,1.343-.043h.688a2.668,2.668,0,0,1,.416,0,2.709,2.709,0,0,0,.72,0c.682-.064,1.37-.128,2.058-.155a.453.453,0,0,1,.24,0,.251.251,0,0,1,.24.2,1.652,1.652,0,0,0,.032.666c.027.336-.123.645.027.981h-.027v.043a5.554,5.554,0,0,0-.032,1.226c.032.133-.059.2-.267.2h-.149c-.331-.027-.6-.069-.928-.069a2,2,0,0,0-.629,0,14.191,14.191,0,0,1-1.6-.043h-.149c-.213,0-.362-.048-.448-.048-.331,0-.57.027-.9,0a2.847,2.847,0,0,0-1.226.133c.091.112.091.2-.032.267s-.208.048-.357-.064a.6.6,0,0,1-.176-.293.235.235,0,0,0-.24-.133h-1.226c-.181,0-.24.107-.149.224l.208.176a2.133,2.133,0,0,1-.8-.181C221.454,136.225,221.3,136.225,221.155,136.156Zm9.255-.261c-.149,0-.24,0-.208.091s.091.091.117.155.064,0,.091,0Z" transform="translate(-101.699 -56.441)" fill="url(#linear-gradient-17)"/>
    <path id="Path_3608" data-name="Path 3608" d="M257.308,127.11c0,.091-.149.208-.24.277l-.085.069a.2.2,0,0,1-.213-.064c-.085-.064-.208,0-.117.091a.171.171,0,0,1,.117.043s.059.112-.091.139c0-.069-.027-.112-.027-.181h-.181c-.027,0-.091,0-.091-.064s.032-.048.091-.091c-.149-.043-.208,0-.208.069a.165.165,0,0,0-.059-.112h-.032c0,.069-.091.048-.091.117a.176.176,0,0,0-.085-.048h-.064a.128.128,0,0,1,.059.112.368.368,0,0,0-.176,0c.027.069.091.112.24.155a.208.208,0,0,0-.123,0,.33.33,0,0,1,.149.043h.059l.064-.043h-.149c0-.112.059-.16.208-.16h.208c.091.069.091.155.123.224h.027c.032,0,.032,0,.032-.043v.043h.027c-.085.027-.117.069-.208.091h-.032c-.032,0-.059-.112-.059-.133a.464.464,0,0,0-.208.1v.064c.091.064.117.043-.091.2h-.149c.091.064.091.133-.032.2l-.3.224c-.149.1-.091.16-.059.251l.267.331c0,.069-.091.048-.091.117h.181c.091,0,0,.069.091.16H255.9a.307.307,0,0,1,.181.133h-.149a.053.053,0,0,0,0,.091c.085.043.149.112.117.176s0,.069.027.091a.575.575,0,0,1,.091.069c0,.091.091.133.181.155h-.091a.117.117,0,0,0-.059,0h-.032c0,.043,0,.064.032.064s.091.112.091.139c.085.064.059.176.085.2a1.462,1.462,0,0,1,.3.112l.149-.117c0,.112.149.2.059.315l-.208-.133h0c.091.064.059.133.149.2.091,0,.149-.043.149-.069a.128.128,0,0,0,.149.133V131c.208,0,.181.091.208.155a.064.064,0,0,0,.059.069.533.533,0,0,1,.123.336l.027.043c.027.043.032,0,.064,0s.027,0,.027.069c.123,0,.181.064.149.176,0,0-.059.069.032.139v-.112h.059c.027,0,.027.069.027.139.091.043.123.085.123.112s-.032,0-.123,0v.048a.373.373,0,0,0,.181-.048c.032.069,0,.133.091.2a.571.571,0,0,0,.085.133c.059.069.091.133,0,.16.032,0,.123,0,.123.064a.533.533,0,0,1,.176.2c0,.069.059.085.091.155a1.811,1.811,0,0,1,.3.405.32.32,0,0,0,.059.181c.149,0,.117.133.208.2-.091.16-.149-.069-.267,0,0,.112.085.16.267.091a.165.165,0,0,1,.117.112s.181.064.091.181H259.3c.027-.16,0-.229-.149-.224l-.032.043h0l.208.384a.985.985,0,0,1,.181.112c-.091,0-.213,0-.181.139h.032a.1.1,0,0,0,.059,0,.481.481,0,0,0,.027-.091h.064c-.213.155,0,.2.085.272l.091.085c-.032.027-.091,0-.091.069s-.059,0-.059,0h-.208c-.032.091.091.112.117.112s.091.091.059.112v.16a1.428,1.428,0,0,1,.3-.229c.032.048.032.112-.059.2a.25.25,0,0,0,.149.027h.2a.123.123,0,0,0,.085.112.437.437,0,0,0-.176-.048c-.091.069-.091.117,0,.139s.059-.048.059-.069a.282.282,0,0,0,.117,0c.043.064.08.133.123.2s.059,0,.091,0-.032.112-.123.048h-.091c-.091,0-.176-.043-.208,0s-.059,0-.091,0c-.117-.048-.176-.048-.208,0h-.6c-.208,0-.325-.069-.533,0a2.407,2.407,0,0,1-.448,0h-1.2c-.325,0-.688-.048-1.066-.048a.235.235,0,0,1-.208-.085l-.3-.533a1.157,1.157,0,0,0-.176-.405c-.091-.155-.24-.288-.357-.469a.938.938,0,0,0-.208-.378l-.272-.4a1.4,1.4,0,0,1-.149-.2c-.085-.2-.267-.357-.357-.533a.87.87,0,0,0-.176-.267.325.325,0,0,1-.123-.176c-.085-.133-.176-.267-.267-.4,0-.048-.032-.069-.091-.091a1.94,1.94,0,0,0-.384-.666,1.514,1.514,0,0,0-.389-.533c-.091-.069-.059-.133-.149-.2l-.6-.73c-.117-.112-.181-.245-.331-.4,0-.069-.117-.091-.149-.112a.72.72,0,0,0-.448-.331c0-.069-.208-.069-.235-.043s-.155.112-.155.176a4.351,4.351,0,0,0-.149.8c0,.069-.059.091-.059.155H250v.133a.624.624,0,0,0-.208,0v.219a.347.347,0,0,0,.3-.091c0,.112-.059.224.059.314a.277.277,0,0,0-.149.069h.032v.267h-.149l.117-.069c-.091-.069-.117-.112-.117-.133s-.091,0-.091.069,0,.064.091.133l.027.043c.027.043,0,0,.032,0,.149,0,.059.091.149.2a.053.053,0,0,1-.059-.048h0a.069.069,0,0,0-.032.069v.064l.032.048c-.091.064-.149.043-.213-.048-.091.069-.117.112-.117.181h.091v.064a.107.107,0,0,0,.059,0v-.112h.213a2.894,2.894,0,0,0-.091.736.677.677,0,0,1-.272.069c0,.155.123.043.213.064,0,.069-.064.048-.064.069h-.149a.635.635,0,0,1,.149.133h-.176c-.027,0,.027.064.027.091s0,.043-.091.043v.155l-.149-.085h-.059c.091.112.091.181.208.288v-.112l.064.048h.085v-.048c0-.048-.032,0-.032,0s-.059-.085-.091-.091h.064a.362.362,0,0,1,.027-.176.278.278,0,0,0,.149-.027,2.52,2.52,0,0,1-.091.533.3.3,0,0,1-.085.245.054.054,0,0,0,.027,0c0,.112-.032.224-.032.336a1.229,1.229,0,0,0,.032.133c0,.064-.027.069-.032.133a.2.2,0,0,1-.059.245v.091c-.059.064,0,.107.059.107a.863.863,0,0,1-.091.469c0,.069.213.112,0,.181v.533c-.117,0-.267-.155-.3,0H249.1v.091a.384.384,0,0,1-.24.064c-.208,0-.448.048-.656.048s-.24,0-.331.064a1.673,1.673,0,0,0-.325,0c-.331.064-.629.043-.986.112a8.218,8.218,0,0,0-1.018.064c-.144,0-.208-.043-.208-.133.091-.155,0-.245,0-.4,0-.064.064-.043.064-.112V134.1a2.591,2.591,0,0,1,.085-.624c0-.155.064-.267.064-.421a.112.112,0,0,0,.059-.091c-.091-.112,0-.245,0-.352v-.16a1.509,1.509,0,0,1,.064-.645c0-.2.027-.336.027-.485a.7.7,0,0,1,.059-.426,2.163,2.163,0,0,0,.032-.464c0-.16.091-.267.123-.448,0-.085-.032-.155-.032-.245a4.619,4.619,0,0,0,.032-.688v-.533a.923.923,0,0,1,.059-.357,4.118,4.118,0,0,0,.032-.533,1.455,1.455,0,0,0,.059-.6v-1.066c0-.336-.059-.581-.059-.912,0-.2.059-.469.059-.666v-.336c0-.245-.059-.49-.059-.757a.711.711,0,0,1,.091-.224v-.133a1.957,1.957,0,0,0-.091-.533v-.043c.091-.2,0-.4,0-.6v-.464c0-.155-.032-.272.059-.378a.7.7,0,0,0,.032-.133.186.186,0,0,0,.059-.133c0-.048.059-.091.149-.139a1.066,1.066,0,0,0,.421-.064h.117a.89.89,0,0,0,.6.043h.453a.219.219,0,0,0,.267-.069l.091-.069-.059.048h0c-.032,0,0,.064.091.112h.8a1.752,1.752,0,0,1,.389.043,3.754,3.754,0,0,0,.533,0,1.482,1.482,0,0,0,.357-.048,1.064,1.064,0,0,1,.267,0,2.9,2.9,0,0,1,.3.128h.117c.24,0,.533-.032.746-.032a1.2,1.2,0,0,1,.48-.053c.064,0,.091,0,.091-.027a1.365,1.365,0,0,1,.272-.181c.032,0,.059,0,.091-.069.091.069.091.112.059.133.091,0,.117-.069.208-.091s.123-.048.123,0,.059.069.176.064a.8.8,0,0,1,.213,0h-.032v.043l.032.043a.133.133,0,0,0,.091,0l.085-.069c.091-.069.064-.043.091-.112v.069c-.027.064,0,.107.091.107h.357a.933.933,0,0,1,.395.059,2.384,2.384,0,0,1,.565.123,1.063,1.063,0,0,1,.213-.053.383.383,0,0,0,.117.133c.091,0,.059-.069.149-.091a.165.165,0,0,1,.149.059c.091,0,.091.069.091-.043l.059.043v.091a.534.534,0,0,0,.208-.032c.117-.032.091.069.181.064a.453.453,0,0,1,.362,0,26.435,26.435,0,0,0,.773.133,3.865,3.865,0,0,0,.661.165A.458.458,0,0,0,258.6,121c0-.043.032-.069.123-.091.027.064.027.133,0,.155a1.458,1.458,0,0,1-.181.208c0,.027,0,.027.027,0l.064.043c-.091.117-.064.251.085.405.043.149.08.3.123.448.085,0,.059.069.085.133.123.155,0,.315.123.469a.36.36,0,0,0-.064.16,1.268,1.268,0,0,1,.059.586.32.32,0,0,1-.059.272c0,.2-.064.432-.064.586a1.706,1.706,0,0,1-.181.533c-.117.2-.208.41-.3.592a.709.709,0,0,1-.213.341v.069c0,.155-.149.251-.176.41,0,0-.181.069-.213.139s-.027.043-.091,0v.064a1.3,1.3,0,0,0,.123-.245v-.069c-.032.069-.181.069-.181.181a1.545,1.545,0,0,1-.027.181.133.133,0,0,0-.091.139.587.587,0,0,0-.213.139v.064h.091c0-.064,0-.091.032-.091a.128.128,0,0,0,.091-.112c.091,0,.117.107.027.245a.378.378,0,0,1-.208.1c-.032,0-.091.043-.123.043v-.037h-.027c-.032,0-.091.027-.123.027s-.085.112-.176.112h0c.032,0,.027.069.059.069l.032.043Zm-8.647,5.241v.133h.091a.107.107,0,0,0-.059-.091Zm.389.309v.133c.091-.064.181-.043.213-.064s0-.069-.032-.069-.117-.112-.091-.176A.224.224,0,0,0,249.05,132.66Zm.213-.245a.272.272,0,0,0,.059-.133c.027.069.027.133,0,.155a.091.091,0,0,0-.032.048h-.027c.085.069.059.112.085.176.091-.064.064-.133.091-.2s.059-.133.091-.2c-.117,0-.267-.133-.416-.064C249.141,132.281,249.232,132.308,249.264,132.414Zm-.032-.267c0-.064.032-.043.032-.064h.245a.347.347,0,0,1,.149-.064v-.069h-.235a.462.462,0,0,0-.091-.085.144.144,0,0,1-.091,0Zm.032-.666.149.064c.091-.112.085-.2-.059-.245,0,.048,0,.069-.032.069s.091.043.117.043A.272.272,0,0,0,249.264,131.481Zm.24.4v-.043a.24.24,0,0,0-.267.043ZM249.349,135l.032.043c.032.043.027.027.059.027h.059c0-.091-.059-.155-.059-.224C249.349,134.867,249.317,134.909,249.349,135Zm.3-4.169a.534.534,0,0,0-.213-.064.571.571,0,0,1-.085.133A.831.831,0,0,0,249.653,130.831Zm.235.736h0c-.085,0-.059.091-.085.091a.277.277,0,0,1-.181-.069v.2a.672.672,0,0,1-.181-.112c-.027.091,0,.133.091.133a.315.315,0,0,0,.181-.064h0a.608.608,0,0,0,.24.091A.373.373,0,0,0,249.887,131.567Zm-.389,2.666a.357.357,0,0,1,.032-.2c-.208.069,0,.133-.091.2Zm.24-2.852a.208.208,0,0,1,.091.107h.187c-.123-.064-.208-.091-.272-.064-.027-.069-.085-.069-.208,0,.091,0,.091.043.123.043s-.032,0-.032.069h.032s.059,0,.059-.027h0c.027,0,.027,0,.027-.043Zm.213-.357c0-.16,0-.16-.149-.181,0,.069.149.112-.064.181Zm-.213.954c.181,0,.213-.085.091-.176a.394.394,0,0,1-.091.165Zm.277-7.666v.133c.032,0,.059,0,.149-.069-.091-.075-.117-.053-.149-.075Zm.837,1.663a.581.581,0,0,0,.48,0c.48,0,.864-.075,1.317-.1a.842.842,0,0,0,.506-.139,2.512,2.512,0,0,1,.629-.347c.117-.112.331-.16.48-.32a.58.58,0,0,0,.208-.5c-.085-.064.032-.133-.059-.2a.778.778,0,0,0-.085-.352.144.144,0,0,0-.107-.16,5.934,5.934,0,0,0-.688-.352,1.967,1.967,0,0,0-.778-.187h-.928a.405.405,0,0,1-.389-.059.981.981,0,0,0-.533-.043c-.117,0-.181.117-.091.2v.533c-.037.219-.08.437-.117.65,0,.112-.091.2-.091.293a1.193,1.193,0,0,1-.091.442c-.032.112,0,.251-.091.315a.448.448,0,0,0,.426.336Zm1.834-5.379a.256.256,0,0,0,.208-.1c-.149-.053-.208-.027-.208.085Zm1.423,7.357a.176.176,0,0,0,.091-.043v-.027l-.091-.064Zm.357-.453c.064,0,.091-.043.091-.112s-.059,0-.059-.064c-.032.043-.059.069-.091.064v.069a1.534,1.534,0,0,1-.24.048.4.4,0,0,0,.3.064.294.294,0,0,1-.149-.043c.091-.011.064-.037.149-.037Zm.752-.208h0s.027,0,.027.043c.213,0,.091-.112.181-.181-.139.08-.208.059-.208.128Zm.389.149c-.091.069-.149.048-.181.069s.027.091.027.16h.213l.059-.043c-.032,0,0-.048-.091-.048s-.059-.043,0-.085Zm.085.533Zm.661-1.45H256.3c-.059,0-.091,0-.091.027v.112c.091,0,.059.069.091.133v.069a.941.941,0,0,0,.181-.187C256.354,126.635,256.354,126.587,256.354,126.523Zm.389.693a.32.32,0,0,1,.091-.181c-.155.069-.059.112-.149.139Zm.229,3.662h-.149a.059.059,0,0,0,.059.064c0,.069.064.048.059.112v.091c-.085.069-.176.048-.267.117.091,0,.149.064.267.085h.363v-.155h-.181c-.091-.064.032-.2-.181-.133.032-.1.123-.144.032-.208Zm0-3.913a.229.229,0,0,0-.24-.176Zm-.149.2h-.064v.2h.064l.117-.069a.23.23,0,0,1-.117,0Zm.405,4.265h-.117v.069h.117Zm.682-9.937c0-.064-.027-.043-.027-.107h-.064c.091-.075,0-.048-.085-.112-.032.069-.091.048-.091.069s-.032.048-.123.048a1.156,1.156,0,0,1,.363.128Zm.235,14.074V135.3a.2.2,0,0,0-.176.069c-.032,0-.032,0-.032.048s0,0,.032,0a.07.07,0,0,1,.027.133Zm.272-.474c0,.043.027.069.117.069.011-.112.011-.187-.107-.112Zm.416-.224a.3.3,0,0,1,.213,0h.085v-.043c-.027-.069-.208-.091-.3,0-.027,0-.027,0-.027-.043v-.027h-.181s0-.043-.091-.043v.069c0,.064.064.112.181.112Zm.272-.251h.091a.259.259,0,0,0,0-.16c0-.021-.181,0-.272,0Zm.416,1.066a.176.176,0,0,0,.059.133h.091c.032,0-.048-.117-.117-.187Zm.149-.048c.085.064.027.112.117.181.1-.144.043-.235-.107-.235Z" transform="translate(-114.545 -56.148)" fill="url(#linear-gradient-18)"/>
    <path id="Path_3609" data-name="Path 3609" d="M275.17,121.211c.032-.394.064-.794.091-1.183a.854.854,0,0,0,.3-.1.618.618,0,0,1,.357-.128l1.066-.048h1.706a4.005,4.005,0,0,0,.752.08.218.218,0,0,1,.208.149c.027.181.059.363.085.533v.181a2.544,2.544,0,0,0-.123.65l-.064.778c-.032.347-.117.693-.149,1.066a6.286,6.286,0,0,0-.1,1.066,3.727,3.727,0,0,1-.032.848c0,.389-.091.784-.1,1.173-.032.245-.059.49-.091.736a4.556,4.556,0,0,0,0,.661,1.932,1.932,0,0,0,0,.395,3.629,3.629,0,0,1,0,1c0,.075-.032.187-.032.3v.944a2.014,2.014,0,0,0-.064.437.475.475,0,0,1,.032.341v.208c0,.341.027.682,0,1.029a.624.624,0,0,0,.149.363.2.2,0,0,0,.181.069,1.2,1.2,0,0,0,.474.043c.688-.032,1.285-.064,1.914-.048a11.7,11.7,0,0,1,1.551.123.656.656,0,0,0,.448-.053.863.863,0,0,1,.331-.1c.24-.075.267,0,.267.181v.3c.085.443.117.837.2,1.279.091.208.027.421.117.608a.32.32,0,0,1-.123.352l-.357.208c-.208-.117-.357,0-.6-.043l.176-.048-.416-.091v-.027l.3-.048c.059,0,.091-.043.091-.112a.885.885,0,0,0-.325.048c-.149,0-.24.091-.389,0,0,.117-.091.187-.24.256-.123,0-.208-.117-.33-.112-.091.091,0,.139-.149.208,0-.069,0-.117-.032-.139-.117,0-.208.139-.293,0h-.091c-.091.181-.213.112-.33.112l-.091-.16c-.091.187-.091.208-.3.187,0,0-.059-.027-.091,0a1.367,1.367,0,0,0-.325,0,2.666,2.666,0,0,1-.72.048H277.98a3,3,0,0,1-.416.027,5.984,5.984,0,0,0-.928,0h-.682c-.208,0-.213,0-.24-.181a4.594,4.594,0,0,0-.267-.656,1.806,1.806,0,0,1-.117-.362.41.41,0,0,0-.208-.384.261.261,0,0,1-.059-.453.426.426,0,0,0,.117-.41.827.827,0,0,1,0-.533,1.682,1.682,0,0,0,.032-.341.379.379,0,0,0-.123-.341h0s.032,0,.032-.048a.213.213,0,0,1-.149-.224c0-.069-.027-.069-.027-.133a3.2,3.2,0,0,1-.123-.725c0-.112-.027-.208-.027-.362a.906.906,0,0,0,.3,0c.123-.16.032-.32,0-.5-.027.181-.208.16-.416.229a.208.208,0,0,1-.032-.133,1.492,1.492,0,0,1-.059-.272c0-.16-.027-.16.181-.139a.56.56,0,0,0,.331-.048v-.208c0-.069.032-.155.032-.224a1.937,1.937,0,0,0,.091-.32,1.388,1.388,0,0,0,.059-.363c.032-.1,0-.187.032-.277a.677.677,0,0,1,.027-.251.58.58,0,0,1-.027-.245v-.229a2.383,2.383,0,0,1,.064-1.114.984.984,0,0,0-.059-.293,1.068,1.068,0,0,1,.021-.48,1.45,1.45,0,0,0,0-.725,3.3,3.3,0,0,1-.027-.5v-.533a.841.841,0,0,1-.059-.384.362.362,0,0,0,0-.251,1.152,1.152,0,0,1-.032-.768,1.482,1.482,0,0,0,.155-.688,2.327,2.327,0,0,1-.059-.315.533.533,0,0,0-.091-.293A.261.261,0,0,0,275.17,121.211Zm.032,9.5h-.064v.181h.064Zm6.52,4.8a.2.2,0,0,0,.091.043h.032l-.117-.048a.066.066,0,0,1,.011.027Z" transform="translate(-128.2 -55.906)" fill="url(#linear-gradient-19)"/>
    <path id="Path_3610" data-name="Path 3610" d="M299.966,123.155c.091-.192.117-.389.213-.656a1.553,1.553,0,0,0,.181-.368c.208-.395.33-.72.533-1.066q.162-.259.3-.533a.394.394,0,0,0,.091-.224.907.907,0,0,1,.091-.416,6.713,6.713,0,0,1,.453-.826,4.5,4.5,0,0,1,.3-.485l.208-.16c.272-.048.57-.117.842-.144.565-.043,1.013-.032,1.525-.08a7.058,7.058,0,0,1,1.285-.037c.565-.048,1.013-.064,1.6-.117a3.155,3.155,0,0,0,.837-.032c.117,0,.117.064.208.133v.325a.378.378,0,0,0,.117.363c.085.043.149.085.149.112.117.288.41.533.41.885a.309.309,0,0,0,.059.171c0,.075,0,.128.032.149a.282.282,0,0,1,.053.2,1.889,1.889,0,0,0,.176.586,2,2,0,0,1,.208.608c.091.2.117.416.208.592a4.8,4.8,0,0,1,.437,1.3c.037.192.08.379.117.57.091.32.235.618.325.912.117.373.235.72.379,1.093a7.96,7.96,0,0,1,.379,1.653c.032.277,0,.485.208.7.085,0,.059.075.085.1.08.347.155.693.235,1.034a.288.288,0,0,0,.117.251.277.277,0,0,1,.117.229,5.516,5.516,0,0,1,.267.885c.235.709.437,1.674.64,2.388.091.3.176.6.267.9.027.155-.032.256-.213.309-.059,0-.091,0-.091.027l-.986.235c0,.075.032.155-.059.181-.149-.176-.149-.2-.357-.128h-.149c-.24,0-.533.107-.778.133a9.208,9.208,0,0,1-1.136.155c-.208.075-.181.027-.267-.149a.455.455,0,0,1-.032-.1c-.075-.368-.155-.736-.229-1.1-.208-.794-.288-1.845-.5-2.666a14.99,14.99,0,0,1-.437-1.882.421.421,0,0,0-.442-.384,1.9,1.9,0,0,0-.656-.048,6.254,6.254,0,0,0-1.226,0h-1.343c-.954,0-1.882,0-2.81-.053a.533.533,0,0,0-.357.133.443.443,0,0,0-.24.272c-.213.293-.3.581-.533.853-.091.123-.123.267-.213.368a3.95,3.95,0,0,0-.213.576c-.112.293-.219.581-.331.869-.032.123,0,.219-.032.315l-.3.789c-.091.1-.059.2-.091.315-.149.309.149.069.059.357a.533.533,0,0,1-.123.432.314.314,0,0,0-.091.309.8.8,0,0,1-.362.624c-.032.069-.091.043-.117.117a.422.422,0,0,0-.3.075c-.091.075-.176-.075-.267,0h-.741c-.208,0-.331.027-.533.027a3.108,3.108,0,0,1-.805,0,4.88,4.88,0,0,1-.837,0,.883.883,0,0,0-.176.048,2.4,2.4,0,0,0-.837,0h-.011c-.24,0-.533,0-.624-.235v-.043l.117-.261a4.884,4.884,0,0,0,.533-.7c.24-.469.155-.373.395-.842.208-.357.331-.709.533-1.066a9.468,9.468,0,0,0,.533-1.066c.208-.405.362-.762.57-1.12a16.742,16.742,0,0,0,.842-1.487,3.679,3.679,0,0,1,.362-.6.368.368,0,0,1,.362-.32.326.326,0,0,1-.091-.208c.032-.171.091-.219.123-.384v-.048c0-.027,0-.027.032-.027a1.6,1.6,0,0,0,.272-.533,1.412,1.412,0,0,1,.357-.533h.091c-.085-.112.091-.123.181-.149-.149-.112-.181-.112-.091-.208a1.339,1.339,0,0,1,.181-.464c.213-.272.272-.533.485-.832a.144.144,0,0,1,.091-.1l.3-.229c.091,0,.123.064.208.085a.81.81,0,0,0,.1-.389c-.091.075-.091.053-.181.08a.219.219,0,0,1-.165-.3Zm-5.107,10.939c.155-.165.155-.144-.085-.208C294.864,133.955,294.832,134.025,294.859,134.094Zm.565.533v.213a.773.773,0,0,1,.149-.144.267.267,0,0,0,.181.144c0,.069-.059.043-.059.117.208.069.149.069.474,0-.117-.117-.3-.139-.267-.325a.917.917,0,0,1-.331.069.294.294,0,0,1-.149-.048Zm2.607-6.93c0,.069.027.069.027.091v-.069Zm.053,1.066c.267,0,.267,0,.267-.149-.091.075-.176.053-.267.08Zm.059.165c-.091,0,0,.048,0,.075h.075v-.144c-.032.016-.075.043-.075.064Zm.3-1.066c-.032,0,0,.075-.091.144l.091-.069h.059v-.027h-.059Zm.235.613c-.059,0-.091,0-.091.048-.091.075-.059.171-.149.288a.165.165,0,0,1,.176.165c-.005.075.091.069.181,0a.885.885,0,0,1-.117-.517Zm.24.325h.059q.133,0,0-.144a.277.277,0,0,0-.059.128Zm.533,0c.027,0,0,.048.085.048V128.8a.237.237,0,0,0-.059-.069c.005.059-.021.037-.021.059Zm.618-4.969c-.027.1,0,.144.149.133.064,0,.091-.048.091-.144Zm3.044,1.6h.117c.091-.08.208-.037.357-.043s.181,0,.272-.085a.115.115,0,0,1,.091-.053.572.572,0,0,1,.506.1.421.421,0,0,0,.267.059,5.92,5.92,0,0,1,.6-.08,2.388,2.388,0,0,1,.72-.037c.032.069.091,0,.181,0a.341.341,0,0,1,.416.053.629.629,0,0,0,.714.037.976.976,0,0,1-.208-.288c-.085,0-.059-.144-.267-.133,0,0,0-.027-.027,0s-.064,0-.064,0c-.085-.171-.085-.272-.176-.437l-.176-.213a1.21,1.21,0,0,1-.293-.672v-.272c0-.123-.091-.187-.267-.2-.032-.219-.272-.277-.48-.363-.085-.064-.3,0-.389.123a2.949,2.949,0,0,0-.331.56.08.08,0,0,0-.032.075,3.2,3.2,0,0,0-.661.72,3.388,3.388,0,0,1-.48.442.268.268,0,0,1-.208-.064l-.091-.043c-.085-.117-.059-.213-.085-.336-.208,0-.272.091-.181.2s.027.123.027.192a.533.533,0,0,0-.091.347.5.5,0,0,1-.091.245c.1.011.1.128.336.144Zm2.2,2.191v.075c.091.069.149,0,.24-.059a.187.187,0,0,0-.235-.037Zm1.573-3.62a.192.192,0,0,0-.267,0c-.091.032-.091.155-.091.181,0,.117.117.064.208.059s.064-.187.155-.267Zm-.235-.384a.181.181,0,0,0,.085.144c.363-.1.421-.176.421-.395-.352.069-.352.043-.5.224Zm1.855,4.2a.443.443,0,0,0-.208,0v.027a.331.331,0,0,0,.181.043h.085Zm-.032.325s0-.027-.027,0h0a.08.08,0,0,0,.027.053Zm1.738,4.132a1.19,1.19,0,0,1,.032-.176h-.091c.032,0,.059.053.059.149Zm.176.928a.65.65,0,0,0,.059-.267l-.032-.027a.805.805,0,0,1-.149.155Zm1.642,0a.725.725,0,0,0,.3.048l-.3-.224H312l-.059.053a.739.739,0,0,0,.107.1Z" transform="translate(-137.184 -55.093)" fill="url(#linear-gradient-20)"/>
    <path id="Path_3611" data-name="Path 3611" d="M344.587,114.241l-.032-.08.032-.533,1.343-.192.629-.037.922-.139h.357a5.238,5.238,0,0,0,.059.533l.032,4.489a1.433,1.433,0,0,1,0,.373v.2a4.13,4.13,0,0,1-.069,1.343c-.027.032-.027.085-.027.2,0,.2.085.277,0,.485a1.6,1.6,0,0,0,0,.395c0,.144.059.341-.1.5v.139l-.064.746a4.176,4.176,0,0,0-.091.885v.885c0,.293-.032.4-.037.624s.027.533.027.736-.032.426-.032.656a.793.793,0,0,1-.064.315c0,.085.091.2,0,.315a.618.618,0,0,0-.032.341v.229c0,.085.027.165.027.251a.886.886,0,0,0,.059.309v.2c-.091.144-.123.2-.091.229a3.319,3.319,0,0,0,.117.592,1.33,1.33,0,0,0,0,.426c.027.2.059.309.059.368,0,.2-.064.395-.064.6v.682a.779.779,0,0,1-.032.283l-.032.709a1.535,1.535,0,0,0-.064.6c.091.2-.059.256-.149.341-.123,0-.208-.085-.331,0a.427.427,0,0,0-.181.059c-.149.027-.267.139-.416.139a1.349,1.349,0,0,1-.714-.277v-.032a1.551,1.551,0,0,0-.688-.107,1.114,1.114,0,0,0-.3,0,4.527,4.527,0,0,1-.6.059c-.208-.032-.448.053-.6,0a2.553,2.553,0,0,1-.474-.112l-.389-.08c-.267-.08-.357-.107-.448-.405a1.642,1.642,0,0,0-.112-.682c-.117-.3-.293-.624-.416-.949l-.261-.784c-.091-.187-.117-.346-.208-.592s-.133-.357-.2-.533-.16-.395-.235-.586a4.259,4.259,0,0,0-.208-.48,2.326,2.326,0,0,0-.235-.533l-.091-.208a2.048,2.048,0,0,0-.2-.64l-.181-.288c-.085-.075-.117-.1-.144-.176a.794.794,0,0,1-.208-.533,4.06,4.06,0,0,0-.117-.533,1.444,1.444,0,0,0-.235-.629,1,1,0,0,1-.176-.469,1.914,1.914,0,0,0-.091-.181l-.176-.336c-.027-.181-.027-.346-.235-.437v-.027a.074.074,0,0,0-.032-.053c-.075-.2-.155-.416-.235-.618s-.144-.256-.293-.219-.213.149-.155.331c0,.1.032.208.027.315,0,.293.027.533.027.874a5.281,5.281,0,0,1,.053.709,1.475,1.475,0,0,1-.032.373,6.018,6.018,0,0,1-.1,1.066v.373c0,.181-.064.293-.064.48,0,.288.059.581.059.869v.608c0,.2.069,3.551.064,4.137.027.155.059.315.085.474-.091.117-.181.229-.267.347l-.389-.107-.389.08-.688-.075-.416.08-.8-.048c-.032-.037-.064-.069-.091-.107-.032-.117-.059-.24-.085-.363h0v-5.331c0-.075,0-.128.027-.155a.256.256,0,0,0,0-.208V126.5c0-.315.032-.7.064-1.1,0-.283.032-.533.037-.885,0-.1.032-.208.032-.315,0-.277-.037-.533-.053-.826v-.107a3.625,3.625,0,0,0-.059-.411v-.5a1.914,1.914,0,0,0,.032-.261V121.9a.6.6,0,0,1,0-.336c.032,0,.032-.032.032-.107v-.288c-.032,0-.032,0-.032-.075v-.053c.091-.107.032-.208.032-.288s.032-.16.032-.235h0a2.3,2.3,0,0,0-.059-.384l-.112-.981V117.2c0-.128-.027-.283-.027-.464a2.1,2.1,0,0,0-.027-.41,3.823,3.823,0,0,1-.027-.832c0-.128.032-.208.123-.245l.357-.043a5.981,5.981,0,0,0,.746-.059c.213-.027.48-.032.688-.053a1.177,1.177,0,0,0,.6-.1h.032l.448-.053a1.9,1.9,0,0,0,.656,0c.091-.091.24-.085.357-.123a.869.869,0,0,0,.272-.059l.506-.171h.181c.091-.037.176.085.208.219a1.116,1.116,0,0,0,.059.341c0,.107.059.176.053.261a.815.815,0,0,0,.176.6c0,.08.064.1.059.181a.719.719,0,0,0,.117.442c.043.133.08.261.117.389a2.5,2.5,0,0,1,.235.73,2.242,2.242,0,0,0,.117.229c.091.293.091.533.176.714s.2.533.293.784a3.344,3.344,0,0,0,.176.389l.176.442c.032.075.059.144.091.213s.08.208.117.315a.3.3,0,0,1,.117.261,2.172,2.172,0,0,1,.149.394l.144.48c.091.075.059.187.149.208a.2.2,0,0,1,.149.208c0,.112-.032.331.176.315.027,0,.027,0,.027.027l.091.1a.933.933,0,0,1,.208.613c0,.3.085.533.085.762,0,.085.027.085.027.112a.677.677,0,0,1,.117.405l.032.053a2.332,2.332,0,0,1,.2.645h0l.091.133c.069.144.139.288.2.432a.352.352,0,0,0,.213.069c.117,0,.176-.176.176-.256,0-.224.037-.421.037-.613a2.662,2.662,0,0,1,.032-.5,3.874,3.874,0,0,0,.064-.581.59.59,0,0,0,.032-.256v-.3a.582.582,0,0,0,.059-.224c0-.251.032-.5.037-.752a1.952,1.952,0,0,0,0-.613.533.533,0,0,1,0-.3,3.238,3.238,0,0,0,.032-.533.938.938,0,0,1,0-.581,11.91,11.91,0,0,1,.128-1.4C344.5,118.8,344.576,115.462,344.587,114.241Z" transform="translate(-156.204 -52.875)" fill="url(#linear-gradient-21)"/>
    <path id="Path_3612" data-name="Path 3612" d="M378.9,118.739a.144.144,0,0,0,.176.112c-.149.379-.181.714-.331,1.066-.091,0-.059-.091-.149-.08-.208.149-.117.309-.117.533a3.987,3.987,0,0,1,.176.533,1.963,1.963,0,0,1-.064.533.48.48,0,0,0-.059.235c0,.1-.091.24-.272.453,0,.032-.149.043-.149.144-.085.235-.3.448-.416.688a.661.661,0,0,0-.091.363c-.123.235-.091.533-.3.8a2.665,2.665,0,0,0-.48.9c-.069.1-.139.181-.208.272a7.144,7.144,0,0,0-.389.6c-.091.1-.149.165-.123.165a10.726,10.726,0,0,1-.869.97,5.532,5.532,0,0,1-.533.624,3.455,3.455,0,0,0-.72.874l-.208.229a.469.469,0,0,0-.331.256.6.6,0,0,1-.272.288c-.144-.091-.325-.181-.474-.053a3.045,3.045,0,0,0-.506.293c-.091,0-.032.059-.123.064a7.018,7.018,0,0,1-.629.41c-.091.128-.3.128-.506.224a.6.6,0,0,1-.389.064h-.208a3.3,3.3,0,0,0-1.066.288c-.272.091-.533.032-.72.123a.565.565,0,0,1-.533,0,1.36,1.36,0,0,1-.474-.208,1.53,1.53,0,0,0-1.194.16c0,.032-.032.059-.123.059a1.423,1.423,0,0,1-.533.272c-.208-.149-.235-.149-.235-.474-.091-.085-.059-.32-.059-.437a4.694,4.694,0,0,1,.128-1.3.463.463,0,0,0,.059-.325,10.362,10.362,0,0,1-.171-1.551,5.33,5.33,0,0,0-.08-1.173c-.091-.32-.059-.586-.149-.816a4.208,4.208,0,0,0-.053-1.114,18.966,18.966,0,0,0-.107-2.132c0-.267-.059-.5-.059-.73v-.235a12.884,12.884,0,0,1,.069-1.941,9.952,9.952,0,0,0,0-2.287c0-.261-.059-.256-.267-.261h-.181l-1.194.144c-.325.037-.384.043-.384-.3v-.112c.091-.331.032-.672.123-.912a4.481,4.481,0,0,1,.336-1,.864.864,0,0,0,.149-.6,2.346,2.346,0,0,1-.053-.773c0-.144.091-.336,0-.464a1.344,1.344,0,0,1,.064-1.066c.117-.336.181-.347.448-.395a.853.853,0,0,0,.656-.283c.091-.1.208-.091.331-.112a2.021,2.021,0,0,0,1.13-.277.474.474,0,0,1,.389-.069,1.4,1.4,0,0,0,.565.053,1.034,1.034,0,0,1,.624,0,1.6,1.6,0,0,0,1.066-.187.757.757,0,0,1,.389-.16,2.544,2.544,0,0,0,.805-.144h.059c.149-.032.208.053.325.032H371.6a1.013,1.013,0,0,0,.778-.144c.149-.123.3-.059.325.064a.613.613,0,0,0,.474.128c.091,0,.117.043.208,0a3.806,3.806,0,0,0,.448,0c.267.043.533-.064.746,0a1.935,1.935,0,0,1,.5,0,.576.576,0,0,1,.448.043,2.634,2.634,0,0,1,.533.187,2.7,2.7,0,0,1,.8.688l.384.581c.208.251.384.416.592.64l.976,1.242a.3.3,0,0,1,.123.213,2.169,2.169,0,0,1,.261,1.013,1.3,1.3,0,0,1,.117.976c-.117,0-.149,0-.117-.117.117-.315-.117-.379-.117-.741h-.059a.148.148,0,0,1-.091-.053v.064c.149.213-.032.533.059.752a.624.624,0,0,0,0,.533c-.085,0-.085-.053-.176-.037a1.233,1.233,0,0,1-.149.416c0,.032.085.085.085.187a.251.251,0,0,0,.149.24c.032-.037.091-.043.181-.155v.3a.181.181,0,0,0-.176.187,1.028,1.028,0,0,1,0,.725c0,.1-.085.176,0,.267l.3-.3c.123.251.117.251,0,.5-.037.064-.08.123-.117.181-.149.149-.149.149,0,.363C379,118.7,378.929,118.632,378.9,118.739Zm-7.965-4.926c-.357.053-.533.112-.8-.064a2.943,2.943,0,0,0-1.519.736c-.208.123-.208.272-.213.485a28.145,28.145,0,0,1,.1,4.142v1.722c.091.469.176.794.325,1.359a2.025,2.025,0,0,1-.155,1.157,1.226,1.226,0,0,0,.229,1.743c.325.347.624.576.949.922h.059c.064,0,.091,0,.091.085a.858.858,0,0,0,1.168-.053,3.23,3.23,0,0,1,.922-.533,4.8,4.8,0,0,0,1.407-1.359c.331-.272.3-.8.533-1.2a2.9,2.9,0,0,0,.576-1.946c0-.634.357-1.066.362-1.562a6.991,6.991,0,0,1,.155-1.45,5,5,0,0,0,.24-1.306.608.608,0,0,0-.112-.784,6.484,6.484,0,0,1-.773-1.45c-.085-.368-.533-.677-.826-.917-.117-.075-.357,0-.448,0a1.674,1.674,0,0,0-.688,0Zm-1.8,16.329a.373.373,0,0,1,.3-.128C369.194,129.9,369.226,129.9,369.135,130.142Z" transform="translate(-169.483 -51.067)" fill="url(#linear-gradient-22)"/>
    <path id="Path_3613" data-name="Path 3613" d="M397.211,115.8l-.24.336a.979.979,0,0,0-.032-.272c-.267,0-.149-.085-.176-.117s-.181,0-.267-.208h.059c-.032,0-.059-.027-.091-.027v-.1a.2.2,0,0,0-.059.107,1.233,1.233,0,0,1-.389-.053c-.027-.032-.117,0-.325,0V115.4a.774.774,0,0,0-.117.048c-.032-.1-.059-.165-.064-.2l-.267-.24h.032a2.619,2.619,0,0,0-.448-.315c0-.032,0-.064-.027-.064s-.059-.1-.091-.155-.032,0-.059,0-.032-.032,0-.032l-.176-.213v.064c-.027,0,0-.064-.027-.1-.08-.176-.16-.357-.235-.533a3.152,3.152,0,0,1-.123-.421c-.043-.139-.075-.341-.117-.533a.608.608,0,0,0-.059-.261,1.1,1.1,0,0,0-.059-.256v.069a5.686,5.686,0,0,1-.117-.581,1.215,1.215,0,0,1-.059-.533.869.869,0,0,0-.059-.224c-.021-.075-.059-.277-.085-.416a1.6,1.6,0,0,1-.027-.656,2.159,2.159,0,0,0,.325-.752c.075-.123.144-.245.213-.368l.24-.64h-.032a7.051,7.051,0,0,1,1.285-2.324,4.635,4.635,0,0,1,.6-.832l.149-.1-.091.048a7.192,7.192,0,0,1,2.175-1.674l.533-.2a5.672,5.672,0,0,1,1.365-.426.966.966,0,0,0,.181-.112.949.949,0,0,1,.384-.128l.357-.16a3.061,3.061,0,0,1,.922-.368,28.583,28.583,0,0,1,2.847-.618h.149a.6.6,0,0,1,.56.592c0,.112-.027.085-.027.192a4.724,4.724,0,0,0-.091.656c-.027.043,0,.075.032.1.176.069.235.24.149.533-.032.123.059.171.085.426a2.793,2.793,0,0,1,.059.432,7.562,7.562,0,0,0-.293,1.178.411.411,0,0,1-.3.4,15.243,15.243,0,0,1-3.652.592h.027a3.454,3.454,0,0,0-.858.176,1.749,1.749,0,0,0-.629.267l-.714.352h.032c-.091.053-.176.171-.267.224v-.037l-.357.283a.592.592,0,0,0-.208.49.906.906,0,0,0-.389.347h.032c-.091.256-.213.533-.331.784v-.037a3.082,3.082,0,0,0-.181,1,2.432,2.432,0,0,0,.117,1.152c0,.032.027.1.027.133s-.027,0,0,.1a1.438,1.438,0,0,0,.208.315,1.951,1.951,0,0,0,.533.533l.3.165h-.032a6.538,6.538,0,0,0,.773.3c.091,0,.117.053.149.053l.389.155a.16.16,0,0,1,.144.048,2.377,2.377,0,0,0,.272.037l.416.08c.208.08.384,0,.533.107h-.027a9.8,9.8,0,0,1,1.1.352,10.224,10.224,0,0,1,.981.341.069.069,0,0,1,.059,0h.032a1.876,1.876,0,0,1,.922.395l.565.533h-.032a2.134,2.134,0,0,1,.506.608l.3.485.208.5c.117.064.181.133.181.245a1.029,1.029,0,0,1,.117.432c.037.149.08.293.117.437l-.027-.032a2.533,2.533,0,0,1,.235.837,2.642,2.642,0,0,0,.059.336.453.453,0,0,1,.032.187h-.032a1.243,1.243,0,0,1,.064.336v1.162a2.131,2.131,0,0,1-.149.65v.219c0,.112-.032.112-.032.229v.261c-.027.213-.059.427-.091.64s-.08.458-.117.682a4,4,0,0,1-.928,1.9,6.809,6.809,0,0,1-.832.832,4.265,4.265,0,0,1-.986.64,1.473,1.473,0,0,0-.357.075,3.516,3.516,0,0,1-.48.08l-.507.112a1.712,1.712,0,0,1-.48.075c-.208,0-.3.037-.507.043a6.752,6.752,0,0,1-.864.075c-.149,0-.3-.032-.448-.032a1.376,1.376,0,0,0-.389-.032,5.006,5.006,0,0,1-1.253.112.533.533,0,0,1-.272.037,4.351,4.351,0,0,1-1.791-.261h.032c-.746-.165-.837-.293-.864-.933a1.242,1.242,0,0,0-.059-.272v.005c-.037-.171-.08-.336-.117-.506l.032.032c-.032-.075-.064-.155-.091-.235a1.926,1.926,0,0,1-.176-.768.629.629,0,0,0,0-.57v-.165l.24-.586a3.811,3.811,0,0,0,.986.059,2.3,2.3,0,0,0,.506,0l.746-.032a4.185,4.185,0,0,0,1.6-.037.565.565,0,0,1,.24.059h.176l.389-.091a3.139,3.139,0,0,0,.773-.176,4.8,4.8,0,0,1,1.066-.2.666.666,0,0,0,.565-.426c0-.032.032-.107.059-.251a2.712,2.712,0,0,0,.155-1.066c-.032-.4-.032-.832-.032-1.3a.9.9,0,0,0-.059-.464,2.512,2.512,0,0,0-.474-1,1.663,1.663,0,0,0-1.4-.826.885.885,0,0,1-.331-.075c-.235-.149-.741-.24-1.221-.432l-.3-.107h.032a.645.645,0,0,1-.357-.2.666.666,0,0,1-.357,0l-.357-.133c-.091,0-.149-.053-.24-.075v.032c-.085,0-.027-.064-.117-.091Zm-3-2.074q-.048-.144,0-.1Zm1.6.57c-.032,0-.059,0-.059.043h.027Zm.325,0h-.059c-.059.043-.091.043-.059.075s.032-.069.123-.08Zm.416.32v.037l-.027.037c.027,0,.027,0,.027.032v.1l.059-.075a.405.405,0,0,0,.272-.032l-.149-.155c0-.1-.032-.336-.032-.373-.149.091-.235.133-.208.128h-.059l-.117-.053v-.1a.7.7,0,0,0-.059.075l-.123.048.181.043c.027.171.085.267.144.293Zm-.176.432c-.064,0-.091.043-.123.149.267-.032.448-.117.656-.043a2.618,2.618,0,0,1,.059-.347.245.245,0,0,0-.149.085.251.251,0,0,0-.267.064v-.069c-.027.043-.027.043-.027,0Zm-.059-.874c.027-.037.027-.037,0-.037Zm.144,1.338c.032,0,.032,0,.032.032a.069.069,0,0,0-.064-.053Zm.064-.821c0-.037-.032-.032-.032-.064a.138.138,0,0,0-.032.107Zm0,.2.027-.037v-.032l-.059.075Zm.235.416c0,.139,0,.139.149,0v-.032Zm.656,0c0-.037,0-.037.032-.043s-.027-.075-.027.032Zm.3.171-.032-.133c-.059,0-.091.043-.059.144Zm.027.165.149-.117-.176-.048a1.119,1.119,0,0,1,.032.155Z" transform="translate(-183.714 -47.25)" fill="url(#linear-gradient-23)"/>
  </g>
</svg>
