<svg xmlns="http://www.w3.org/2000/svg" width="29.999" height="17.5" viewBox="0 0 29.999 17.5">
  <g id="Search_results_for_Hand_shake_-_Flaticon-2" data-name="Search results for Hand shake - Flaticon-2" transform="translate(0 -106.666)">
    <g id="Group_1118" data-name="Group 1118" transform="translate(0 106.666)">
      <g id="Group_1117" data-name="Group 1117">
        <path id="Path_3680" data-name="Path 3680" d="M7.25,108.041c-1-1-5.25-1.25-6.625-1.375a.459.459,0,0,0-.375.125.948.948,0,0,0-.25.5v11.25a.59.59,0,0,0,.625.625h3.75A.687.687,0,0,0,5,118.791c0-.375,2.25-7,2.5-10.25A.5.5,0,0,0,7.25,108.041Z" transform="translate(0 -106.666)" fill="#fff"/>
      </g>
    </g>
    <g id="Group_1120" data-name="Group 1120" transform="translate(10.609 109.291)">
      <g id="Group_1119" data-name="Group 1119">
        <path id="Path_3681" data-name="Path 3681" d="M191.077,153.217c-1.25-.375-2.375-.875-3.375-1.25-2.25-1-3.25-.5-5.25,1.5a4.09,4.09,0,0,0-1.375,2.625c0,.125,0,.125.25.25.625.25,1.5.375,2.375-1a.649.649,0,0,1,.5-.25,2.317,2.317,0,0,0,.875-.25,6.091,6.091,0,0,1,.875-.375h.25c.125,0,.375.125.5.125.625.625,1.75,1.5,2.875,2.5a28.629,28.629,0,0,1,4.375,4h.125C193.2,158.591,191.7,154.341,191.077,153.217Z" transform="translate(-181.061 -151.467)" fill="#fff"/>
      </g>
    </g>
    <g id="Group_1122" data-name="Group 1122" transform="translate(21.249 107.916)">
      <g id="Group_1121" data-name="Group 1121">
        <path id="Path_3682" data-name="Path 3682" d="M370.791,128a21.919,21.919,0,0,0-7.75,1.25l-.375.375a.752.752,0,0,0,.125.5A70.4,70.4,0,0,1,366.416,140a.83.83,0,0,0,.625.5h3.75a.59.59,0,0,0,.625-.625v-11.25A.59.59,0,0,0,370.791,128Z" transform="translate(-362.666 -128)" fill="#fff"/>
      </g>
    </g>
    <g id="Group_1124" data-name="Group 1124" transform="translate(6.5 110.416)">
      <g id="Group_1123" data-name="Group 1123">
        <path id="Path_3683" data-name="Path 3683" d="M127.058,180.417c-.5-1.125-2.625-2.75-4.5-4.25-1-.875-2-1.625-2.75-2.25-.125.125-.375.125-.375.25a2.355,2.355,0,0,1-1,.25,3.088,3.088,0,0,1-3.625,1.25,1.478,1.478,0,0,1-1.125-1.125c-.25-1.25.875-3,1.75-3.875h-2.5a63.73,63.73,0,0,1-2,7.5,14.129,14.129,0,0,0,1.375,1.375c2.375,2,5.125,4,5.625,4.375a3.553,3.553,0,0,0,1.5.5h.375l-2-2a.619.619,0,1,1,.875-.875l2.5,2.5c.25.25.5.125.75.125.375-.125.5-.375.625-.75l-2.875-2.875a.619.619,0,0,1,.875-.875l3.125,3.125a1.337,1.337,0,0,0,1,0c.125-.125.375-.25.5-.5l-3.5-3.5a.619.619,0,1,1,.875-.875l3.625,3.625a.827.827,0,0,0,.75-.125A.849.849,0,0,0,127.058,180.417Z" transform="translate(-110.934 -170.667)" fill="#fff"/>
      </g>
    </g>
  </g>
</svg>
