<svg xmlns="http://www.w3.org/2000/svg" width="17.01" height="18" viewBox="0 0 17.01 18">
  <g id="Search_results_for_Contact_-_Flaticon-2" data-name="Search results for Contact - Flaticon-2" transform="translate(5.6 -0.5)">
    <g id="Group_479" data-name="Group 479" transform="translate(-5.6 0.5)">
      <path id="Path_1792" data-name="Path 1792" d="M7.366,6.35A2.229,2.229,0,0,1,5.078,8.6H3.4v1.725H5.078a2.25,2.25,0,1,1,0,4.5H3.4V16.1a2.39,2.39,0,0,0,2.441,2.4h10.6a2.39,2.39,0,0,0,2.441-2.4V2.9A2.39,2.39,0,0,0,16.443.5H5.841A2.39,2.39,0,0,0,3.4,2.9V4.1H5.078A2.327,2.327,0,0,1,7.366,6.35Zm4.882-1.875A1.712,1.712,0,0,1,14,6.2a1.76,1.76,0,0,1-1.754,1.725A1.712,1.712,0,0,1,10.494,6.2a1.76,1.76,0,0,1,1.754-1.725Zm0,4.8a3.383,3.383,0,0,1,3.356,3.15.758.758,0,0,1-.763.75H9.731a.758.758,0,0,1-.763-.75,3.263,3.263,0,0,1,3.28-3.15Z" transform="translate(-1.874 -0.5)" fill="rgba(255,255,255,0.99)"/>
      <path id="Path_1793" data-name="Path 1793" d="M2.163,8.926H4.6a.721.721,0,0,0,.763-.763A.721.721,0,0,0,4.6,7.4H2.163a.721.721,0,0,0-.763.763A.721.721,0,0,0,2.163,8.926Z" transform="translate(-1.4 -2.233)" fill="rgba(255,255,255,0.99)"/>
      <path id="Path_1794" data-name="Path 1794" d="M2.163,17.126H4.6a.763.763,0,1,0,0-1.526H2.163a.763.763,0,1,0,0,1.526Z" transform="translate(-1.4 -4.293)" fill="rgba(255,255,255,0.99)"/>
    </g>
  </g>
</svg>
