<svg xmlns="http://www.w3.org/2000/svg" width="16.932" height="16.893" viewBox="0 0 16.932 16.893">
  <g id="Search_results_for_Url_-_Flaticon-2" data-name="Search results for Url - Flaticon-2" transform="translate(0 -0.588)">
    <g id="Group_1114" data-name="Group 1114" transform="translate(0 0.588)">
      <path id="Path_3678" data-name="Path 3678" d="M152.381,4.833a4.643,4.643,0,0,0,.726,7.008.192.192,0,0,0,.24-.023,7.706,7.706,0,0,0,1.245-1.5.181.181,0,0,0-.071-.253,2.324,2.324,0,0,1-.891-.917h0a2.236,2.236,0,0,1-.19-1.527h0a4.948,4.948,0,0,1,1.45-1.926h0l2.121-2.165a2.175,2.175,0,0,1,3.089-.016,2.2,2.2,0,0,1,.032,3.105l-1.285,1.321a.225.225,0,0,0-.051.231,6.079,6.079,0,0,1,.17,2.981.026.026,0,0,0,.044.024l2.734-2.791a4.584,4.584,0,1,0-6.548-6.417l-2.8,2.859-.011.012Z" transform="translate(-146.11 -0.588)" fill="#fff"/>
      <path id="Path_3679" data-name="Path 3679" d="M11.383,176.788h0l.005,0a4.689,4.689,0,0,0,.406-3.331h0a4.6,4.6,0,0,0-1.855-2.646.253.253,0,0,0-.281.013,4.45,4.45,0,0,0-1.23,1.485.206.206,0,0,0,.082.269,2.3,2.3,0,0,1,.881.9h0a2.106,2.106,0,0,1,.223,1.383h0c-.1.757-.863,1.451-1.471,2.077h0l-2.109,2.153a2.2,2.2,0,1,1-3.137-3.073l1.288-1.325a.225.225,0,0,0,.052-.227,6.407,6.407,0,0,1-.184-2.973.026.026,0,0,0-.044-.023l-2.693,2.749a4.655,4.655,0,0,0,.033,6.516,4.6,4.6,0,0,0,6.482-.066c.613-.686,3.237-3.115,3.553-3.877Z" transform="translate(0 -165.142)" fill="#fff"/>
    </g>
  </g>
</svg>
