<svg xmlns="http://www.w3.org/2000/svg" width="559.559" height="128.554" viewBox="0 0 559.559 128.554">
  <g id="logo-dfy" transform="translate(0)">
    <ellipse id="Ellipse_79" data-name="Ellipse 79" cx="63.553" cy="63.553" rx="63.553" ry="63.553" transform="translate(0)" fill="#ffbf00"/>
    <path id="Path_3554" data-name="Path 3554" d="M10.624,74.813V73.084c.205-.019.4-.051.586-.051q2.289-.006,4.579,0h.633a3.612,3.612,0,0,0,.076-.391c.013-.146,0-.294,0-.441q0-28.343,0-56.686c0-.257-.018-.513-.03-.835H10.638V12.914c.232-.017.457-.048.681-.048q7.79,0,15.58,0c2.887,0,5.774-.012,8.661,0,2.189.012,4.381,0,6.567.1a50.441,50.441,0,0,1,12.661,2.043,30.429,30.429,0,0,1,7.171,3.223,20.7,20.7,0,0,1,8.227,9.644,31.307,31.307,0,0,1,2.092,7.494,45.719,45.719,0,0,1,.535,6.743,47.255,47.255,0,0,1-1.234,11.921,28.108,28.108,0,0,1-2.87,7.288,21.83,21.83,0,0,1-8.384,8.184,38.119,38.119,0,0,1-10.6,3.969,50.165,50.165,0,0,1-5.826.952c-1.581.162-3.171.288-4.759.324-9.323.209-18.647.042-27.971.092C11.009,74.846,10.846,74.826,10.624,74.813Zm23.5-1.783h.6l3.185,0a18.49,18.49,0,0,0,4.282-.5,12.625,12.625,0,0,0,8.631-6.6A22.706,22.706,0,0,0,52.7,60.874a39.725,39.725,0,0,0,1.11-6.567c.155-1.873.325-3.749.368-5.627.066-2.943.033-5.888.037-8.833q0-3.338-.3-6.663A46.33,46.33,0,0,0,53,27.13a23.388,23.388,0,0,0-2.279-6.252,10.544,10.544,0,0,0-6.581-5.243,28.006,28.006,0,0,0-6.47-.94c-.994-.043-1.991-.015-2.986-.016-.161,0-.323.017-.56.029C34.121,34.147,34.121,53.553,34.121,73.03Z" transform="translate(15.345 18.575)"/>
    <path id="Path_3555" data-name="Path 3555" d="M45.594,32.234a10.392,10.392,0,0,1,3.324.527,6.174,6.174,0,0,1,4.4,4.865,10.408,10.408,0,0,1-.221,5.186,6.535,6.535,0,0,1-5.37,4.728,11.4,11.4,0,0,1-4.2.027,6.354,6.354,0,0,1-4.715-3.329,8.465,8.465,0,0,1-.3-7.88,6.615,6.615,0,0,1,5.45-3.985C44.5,32.3,45.05,32.28,45.594,32.234Z" transform="translate(54.428 46.557)"/>
    <path id="Path_3556" data-name="Path 3556" d="M64.86,5.89H80.394q7.956,0,12.427,1.97a11.66,11.66,0,0,1,6.289,6.214Q101,18.241,101,25.288V47.566q0,7.123-1.894,11.366a11.961,11.961,0,0,1-6.289,6.289q-4.4,2.046-12.276,2.046H64.86ZM80.545,57.872a8.567,8.567,0,0,0,4.319-.834,3.953,3.953,0,0,0,1.819-2.5,23.384,23.384,0,0,0,.379-4.85V22.939a16.562,16.562,0,0,0-.455-4.471,3.439,3.439,0,0,0-1.819-2.349,9.3,9.3,0,0,0-4.319-.758H78.424v42.51Zm43.111,10.154q-7.2,0-11.215-3.789-4.016-3.865-4.016-10.836V37.337q0-6.971,4.016-10.76,4.016-3.865,11.215-3.865,7.274,0,10.912,3.713t3.637,10.912v8.79h-17.58v8.411q0,4.7,3.031,4.7,3.183,0,3.183-4.243V50.37h11.366v4.243q0,6.592-3.865,10Q130.552,68.025,123.657,68.025Zm3.183-27.658V35.973a5.014,5.014,0,0,0-.909-3.41,2.816,2.816,0,0,0-2.349-1.061,2.478,2.478,0,0,0-2.2,1.137,7.675,7.675,0,0,0-.758,4.016v3.713ZM146.368,5.89h26.522v9.169H159.933V30.517h11.291v9.472H159.933V67.268H146.368ZM179.3,7.481h12.427v8.563H179.3Zm.076,15.989h12.351v43.8H179.376ZM220.939,5.89h26.521v9.169H234.5V30.517h11.29v9.472H234.5V67.268H220.939Zm47.328,62.135q-7.2,0-11.291-3.637-4.015-3.637-4.016-10.684V37.034q0-7.047,4.016-10.684,4.092-3.637,11.291-3.637t11.29,3.713q4.092,3.637,4.092,10.608V53.7q0,6.971-4.092,10.684Q275.466,68.025,268.267,68.025Zm.076-8.184a2.5,2.5,0,0,0,2.425-1.288,9.272,9.272,0,0,0,.682-4.016V36.2a8.749,8.749,0,0,0-.682-3.94,2.475,2.475,0,0,0-2.425-1.364,2.638,2.638,0,0,0-2.5,1.364,9.047,9.047,0,0,0-.682,3.94V54.538a9.272,9.272,0,0,0,.682,4.016A2.674,2.674,0,0,0,268.343,59.842ZM291.408,23.47h12.351v7.274a23.537,23.537,0,0,1,4.4-5.91,7.659,7.659,0,0,1,6.9-1.667V35.442a11.021,11.021,0,0,0-4.016-.909q-4.015,0-7.274,4.243V67.268H291.408Zm58.171,18.716L337.909,5.89h12.806l5.835,19.4,5.228-19.4h12.275l-11.442,36.3V67.268H349.578Zm43.079,25.839q-7.2,0-11.29-3.637-4.019-3.637-4.016-10.684V37.034q0-7.047,4.016-10.684,4.092-3.637,11.29-3.637t11.29,3.713q4.092,3.637,4.092,10.608V53.7q0,6.971-4.092,10.684Q399.856,68.025,392.658,68.025Zm.076-8.184a2.5,2.5,0,0,0,2.425-1.288,9.27,9.27,0,0,0,.682-4.016V36.2a8.748,8.748,0,0,0-.682-3.94,2.475,2.475,0,0,0-2.425-1.364,2.633,2.633,0,0,0-2.5,1.364,9.045,9.045,0,0,0-.682,3.94V54.538a9.269,9.269,0,0,0,.682,4.016A2.669,2.669,0,0,0,392.733,59.842Zm30.642,8.184a7.148,7.148,0,0,1-6.062-2.8,12.2,12.2,0,0,1-2.122-7.426V23.47h12.351V56.356a4.251,4.251,0,0,0,.606,2.5,2.27,2.27,0,0,0,1.97.834,8.587,8.587,0,0,0,3.637-1.364V23.47h12.275v43.8H433.757V63.252Q428.605,68.025,423.376,68.025Z" transform="translate(93.681 8.507)" fill="#fff"/>
    <path id="Path_3557" data-name="Path 3557" d="M224.145,26.226h11.669V37.9H224.145Z" transform="translate(323.745 37.88)" fill="#ffbf00"/>
    <path id="Path_3558" data-name="Path 3558" d="M147.581,71.455a5.046,5.046,0,0,1-4.708-2.464q-1.408-2.464-1.408-8.184V56.1q0-5.412,1.276-8.14a4.724,4.724,0,0,1,4.708-2.728,6.012,6.012,0,0,1,4.488,2.2V35.42h3.212V71.059h-3.212v-1.8A5.9,5.9,0,0,1,147.581,71.455Zm.66-2.552a5.555,5.555,0,0,0,3.7-1.672V49.543a5.91,5.91,0,0,0-3.784-1.8,2.759,2.759,0,0,0-2.772,1.716,15.97,15.97,0,0,0-.7,5.588v6.028a18.288,18.288,0,0,0,.7,5.984A2.814,2.814,0,0,0,148.241,68.9Zm18.7,2.552a7.2,7.2,0,0,1-3.96-.968,5.625,5.625,0,0,1-2.2-3.124,19.492,19.492,0,0,1-.7-5.852V55.087a19.23,19.23,0,0,1,.7-5.852,5.6,5.6,0,0,1,2.244-3.08,7.609,7.609,0,0,1,3.96-.924,6.278,6.278,0,0,1,4.048,1.144,5.63,5.63,0,0,1,1.98,3.344,25.352,25.352,0,0,1,.572,6.028v2.288h-10.3v4.444a11.049,11.049,0,0,0,.836,5.1,2.985,2.985,0,0,0,2.816,1.452,3.133,3.133,0,0,0,2.552-1.056q.924-1.056.924-3.828v-1.76h3.124V63.8A9.08,9.08,0,0,1,172,69.475Q170.462,71.455,166.943,71.455Zm3.476-15.267V54.075a19.3,19.3,0,0,0-.264-3.608,3.693,3.693,0,0,0-.968-2.068,3.048,3.048,0,0,0-2.244-.748,3,3,0,0,0-3.3,2.684,18.592,18.592,0,0,0-.352,4.136v1.716Zm9.528-8.228h-3.256V45.628h3.256v-2.64a9.154,9.154,0,0,1,1.012-4.84q1.056-1.584,3.916-1.584a12.789,12.789,0,0,1,2.332.22V39.2a7.755,7.755,0,0,0-1.76-.176,1.974,1.974,0,0,0-1.848.748,7.067,7.067,0,0,0-.4,2.9v2.948h9.636V71.059h-3.212V47.96H183.2v23.1h-3.256Zm9.944-10.208h2.992v4.356H189.89ZM200.281,47.96h-3.256V45.628h3.256v-2.64a16.46,16.46,0,0,1,.308-3.52,3.874,3.874,0,0,1,1.364-2.156,4.791,4.791,0,0,1,2.992-.792,10.328,10.328,0,0,1,2.6.308V39.2a7.409,7.409,0,0,0-1.8-.22,1.845,1.845,0,0,0-1.8.836,7.1,7.1,0,0,0-.4,2.86v2.948h4.092V47.96h-4.092v23.1h-3.256Zm16.92,23.5q-3.784,0-5.28-2.332-1.5-2.376-1.5-7.26v-7.04q0-4.884,1.5-7.216,1.5-2.376,5.28-2.376,3.828,0,5.324,2.376,1.5,2.332,1.5,7.216v7.04q0,4.884-1.5,7.26Q221.029,71.455,217.2,71.455Zm0-2.42a2.976,2.976,0,0,0,2.332-.836,4.086,4.086,0,0,0,1.012-2.244,27.409,27.409,0,0,0,.22-3.916V54.647a26.45,26.45,0,0,0-.22-3.872,4.132,4.132,0,0,0-1.012-2.288,3.67,3.67,0,0,0-4.664,0,4.318,4.318,0,0,0-.968,2.288,26.455,26.455,0,0,0-.22,3.872v7.392a27.415,27.415,0,0,0,.22,3.916,4.27,4.27,0,0,0,.968,2.244A2.977,2.977,0,0,0,217.2,69.035Zm11.941-23.407H232.4V49.1a8.022,8.022,0,0,1,2.684-2.816,6.24,6.24,0,0,1,3.168-.924,3.485,3.485,0,0,1,.572.044V48.84a4.983,4.983,0,0,0-1.584-.264,5.471,5.471,0,0,0-4.84,2.948V71.059h-3.256ZM241.72,74.887a8.708,8.708,0,0,0,4.136-.66,2.181,2.181,0,0,0,1.056-1.98,10.326,10.326,0,0,0-.4-2.376q-.352-1.584-.44-1.848l-5.236-22.4h3.212l4.4,21.647,4.268-21.647h3.256l-6.16,27.235a5.272,5.272,0,0,1-2.288,3.476,9.569,9.569,0,0,1-4.972,1.056h-.836Zm24.194-3.432q-3.784,0-5.28-2.332-1.5-2.376-1.5-7.26v-7.04q0-4.884,1.5-7.216,1.5-2.376,5.28-2.376,3.828,0,5.324,2.376,1.5,2.332,1.5,7.216v7.04q0,4.884-1.5,7.26Q269.742,71.455,265.914,71.455Zm0-2.42a2.977,2.977,0,0,0,2.332-.836,4.086,4.086,0,0,0,1.012-2.244,27.405,27.405,0,0,0,.22-3.916V54.647a26.446,26.446,0,0,0-.22-3.872,4.131,4.131,0,0,0-1.012-2.288,3.67,3.67,0,0,0-4.664,0,4.319,4.319,0,0,0-.968,2.288,26.456,26.456,0,0,0-.22,3.872v7.392a27.415,27.415,0,0,0,.22,3.916,4.27,4.27,0,0,0,.968,2.244A2.977,2.977,0,0,0,265.914,69.035Zm15.461,2.42a3.4,3.4,0,0,1-2.948-1.408,6.786,6.786,0,0,1-1.012-4V45.628h3.256V65.339a5.074,5.074,0,0,0,.572,2.772,2.2,2.2,0,0,0,1.848.792,4.474,4.474,0,0,0,2.244-.66,10.02,10.02,0,0,0,2.244-1.848V45.628h3.212V71.059h-3.212V68.243a10.387,10.387,0,0,1-2.86,2.376A7.065,7.065,0,0,1,281.375,71.455Zm26.961,0a3.4,3.4,0,0,1-2.948-1.408,6.785,6.785,0,0,1-1.012-4V45.628h3.256V65.339a5.075,5.075,0,0,0,.572,2.772,2.2,2.2,0,0,0,1.848.792,4.474,4.474,0,0,0,2.244-.66,10.02,10.02,0,0,0,2.244-1.848V45.628h3.212V71.059H314.54V68.243a10.386,10.386,0,0,1-2.86,2.376A7.065,7.065,0,0,1,308.336,71.455ZM323.213,35.42h3.212V58.035l8.492-12.408H338.3l-6.424,9.812,6.16,15.619h-3.256l-5.368-13.815-2.992,4.18v9.636h-3.212Z" transform="translate(204.326 51.159)" fill="#ffbf00"/>
    <path id="Path_3559" data-name="Path 3559" d="M204.843,48.02h3.388v4.84h-3.388Z" transform="translate(295.866 69.358)" fill="#fff"/>
  </g>
</svg>
